<svg width="960" height="500"><g transform="translate(60.5,40.5)"><g class="axis axis--y" transform="translate(-10,0)"><g class="tick" transform="translate(0,409)" style="opacity: 1;"><line x2="-6" y2="0"></line><text dy=".32em" x="-9" y="0" style="text-anchor: end;">e⁰</text></g><g class="tick" transform="translate(0,363.55555555555554)" style="opacity: 1;"><line x2="-6" y2="0"></line><text dy=".32em" x="-9" y="0" style="text-anchor: end;">e¹</text></g><g class="tick" transform="translate(0,318.11111111111114)" style="opacity: 1;"><line x2="-6" y2="0"></line><text dy=".32em" x="-9" y="0" style="text-anchor: end;">e²</text></g><g class="tick" transform="translate(0,272.6666666666667)" style="opacity: 1;"><line x2="-6" y2="0"></line><text dy=".32em" x="-9" y="0" style="text-anchor: end;">e³</text></g><g class="tick" transform="translate(0,227.22222222222223)" style="opacity: 1;"><line x2="-6" y2="0"></line><text dy=".32em" x="-9" y="0" style="text-anchor: end;">e⁴</text></g><g class="tick" transform="translate(0,181.77777777777777)" style="opacity: 1;"><line x2="-6" y2="0"></line><text dy=".32em" x="-9" y="0" style="text-anchor: end;">e⁵</text></g><g class="tick" transform="translate(0,136.33333333333334)" style="opacity: 1;"><line x2="-6" y2="0"></line><text dy=".32em" x="-9" y="0" style="text-anchor: end;">e⁶</text></g><g class="tick" transform="translate(0,90.88888888888889)" style="opacity: 1;"><line x2="-6" y2="0"></line><text dy=".32em" x="-9" y="0" style="text-anchor: end;">e⁷</text></g><g class="tick" transform="translate(0,45.444444444444464)" style="opacity: 1;"><line x2="-6" y2="0"></line><text dy=".32em" x="-9" y="0" style="text-anchor: end;">e⁸</text></g><g class="tick" transform="translate(0,0)" style="opacity: 1;"><line x2="-6" y2="0"></line><text dy=".32em" x="-9" y="0" style="text-anchor: end;">e⁹</text></g><path class="domain" d="M-6,0H0V409H-6"></path></g><g class="axis axis--x" transform="translate(0,419)"><g class="tick" transform="translate(0,0)" style="opacity: 1;"><line y2="6" x2="0"></line><text dy=".71em" y="9" x="0" style="text-anchor: middle;">0</text></g><g class="tick" transform="translate(85.9,0)" style="opacity: 1;"><line y2="6" x2="0"></line><text dy=".71em" y="9" x="0" style="text-anchor: middle;">10</text></g><g class="tick" transform="translate(171.8,0)" style="opacity: 1;"><line y2="6" x2="0"></line><text dy=".71em" y="9" x="0" style="text-anchor: middle;">20</text></g><g class="tick" transform="translate(257.7,0)" style="opacity: 1;"><line y2="6" x2="0"></line><text dy=".71em" y="9" x="0" style="text-anchor: middle;">30</text></g><g class="tick" transform="translate(343.6,0)" style="opacity: 1;"><line y2="6" x2="0"></line><text dy=".71em" y="9" x="0" style="text-anchor: middle;">40</text></g><g class="tick" transform="translate(429.5,0)" style="opacity: 1;"><line y2="6" x2="0"></line><text dy=".71em" y="9" x="0" style="text-anchor: middle;">50</text></g><g class="tick" transform="translate(515.4,0)" style="opacity: 1;"><line y2="6" x2="0"></line><text dy=".71em" y="9" x="0" style="text-anchor: middle;">60</text></g><g class="tick" transform="translate(601.3,0)" style="opacity: 1;"><line y2="6" x2="0"></line><text dy=".71em" y="9" x="0" style="text-anchor: middle;">70</text></g><g class="tick" transform="translate(687.2,0)" style="opacity: 1;"><line y2="6" x2="0"></line><text dy=".71em" y="9" x="0" style="text-anchor: middle;">80</text></g><g class="tick" transform="translate(773.1,0)" style="opacity: 1;"><line y2="6" x2="0"></line><text dy=".71em" y="9" x="0" style="text-anchor: middle;">90</text></g><g class="tick" transform="translate(859,0)" style="opacity: 1;"><line y2="6" x2="0"></line><text dy=".71em" y="9" x="0" style="text-anchor: middle;">100</text></g><path class="domain" d="M0,6V0H859V6"></path></g><path class="line" d="M0,409L8.59,359.0741748816381L17.18,320.5691943373752L25.77,292.4373014220257L34.36,270.6433692190134L42.95,252.9443592628417L51.54,238.07435029792586L60.13,225.2657812728521L68.72,214.0224542855898L77.31,204.00649575940093L85.9,194.9780164070284L94.49,186.7608007285892L103.08,179.22171840139356L111.67,172.25779594309543L120.26,165.78778037869876L128.85,159.7464504669247L137.44,154.08067064103903L146.03,148.74658569298185L154.62,143.7075830121256L163.21,138.93278395257545L171.8,134.39590789154514L180.39,130.07440387541448L188.98,125.94877772568957L197.57000000000002,122.00206415304055L206.16,118.21940797501112L214.75,114.58772848185505L223.34,111.09544791660423L231.93,107.7322699271204L240.52,104.48899735499394L249.10999999999999,101.35738127414739L257.7,98.3299950659644L266.29,95.40012871172492L274.88,92.5616995310081L283.47,89.80917639021966L292.06,87.1375150148536L300.65,84.5421025100387L309.24,82.01870956076756L317.83,79.56344907113497L326.42,77.17274022950956L335.01,74.84327716768756L343.6,72.57200152712808L352.19,70.35607836223078L360.78,68.19287490530874L369.37,66.079941795043L377.96,64.01499643336585L386.55,61.99590818768956L395.14000000000004,60.020685198355466L403.72999999999996,58.08746258684755L412.32,56.19449189005652L420.90999999999997,54.34013157077801L429.5,52.52283847555546L438.09000000000003,50.7411601286294L446.68,48.99372776569634L455.27000000000004,47.27925002387457L463.86,45.596507215088174L472.45000000000005,43.94434611932919L481.04,42.321675242183844L489.62999999999994,40.727460487827386L498.21999999999997,39.16072120457268L506.80999999999995,37.620526565136835L515.4,36.1059922482026L523.99,34.61627739167676L532.58,33.150581791386216L541.17,31.708143321865855L549.76,30.288235558441833L558.35,28.890165582051868L566.94,27.51327195020599L575.5300000000001,26.156922819230214L584.12,24.820514204453705L592.7099999999999,23.50346836636087L601.3,22.205232311919826L609.89,20.925276401364485L618.48,19.66309305164949L627.0699999999999,18.418195528641927L635.66,17.1901168208582L644.25,15.978408588231446L652.84,14.782640179987819L661.4300000000001,13.602397716253783L670.02,12.437283228493625L678.61,11.286913854314479L687.2,10.150921082562663L695.7900000000001,9.028950044990713L704.38,7.920658851087527L712.9699999999999,6.825717962956327L721.56,5.743809607379342L730.15,4.6746272224481835L738.74,3.6178749363481333L747.33,2.5732670760813625L755.92,1.5405277040888081L764.51,0.5193901808907704L773.1,-0.49040324798677415L781.69,-1.4891018424014157L790.2800000000001,-2.476946736776009L798.87,-3.4541712894426957L807.4599999999999,-4.421001413412195L816.05,-5.377655889742783L824.64,-6.324346664595332L833.23,-7.261279130982607L841.8199999999999,-8.188652396149738L850.41,-9.106659535456473"></path></g></svg>