
<svg width="324px" height="317px" viewBox="41 44 324 317" version="1.1" xmlns="http://www.w3.org/2000/svg" xmlns:xlink="http://www.w3.org/1999/xlink">
    <!-- Generator: Sketch 40.2 (33826) - http://www.bohemiancoding.com/sketch -->
    <desc>Created with Sketch.</desc>
    <defs></defs>
    <g id="Group" stroke="none" stroke-width="1" fill="none" fill-rule="evenodd" transform="translate(41.000000, 44.000000)">
        <circle id="Oval" fill-opacity="0.200000003" fill="#52B37A" cx="223.285714" cy="115.797373" r="4"></circle>
        <circle id="Oval" fill-opacity="0.200000003" fill="#846CB3" cx="51.8571429" cy="235.236814" r="4"></circle>
        <circle id="Oval" fill-opacity="0.200000003" fill="#846CB3" cx="94.7142857" cy="238.048624" r="4"></circle>
        <circle id="Oval" fill-opacity="0.200000003" fill="#52B37A" cx="51.8571429" cy="85.816757" r="4"></circle>
        <circle id="Oval" fill-opacity="0.200000003" fill="#846CB3" cx="9" cy="242.599124" r="4"></circle>
        <circle id="Oval" fill-opacity="0.200000003" fill="#846CB3" cx="51.8571429" cy="239.610843" r="4"></circle>
        <circle id="Oval" fill-opacity="0.200000003" fill="#52B37A" cx="137.571429" cy="83.7045697" r="4"></circle>
        <circle id="Oval" fill-opacity="0.200000003" fill="#52B37A" cx="180.428571" cy="80.4782663" r="4"></circle>
        <circle id="Oval" fill-opacity="0.200000003" fill="#52B37A" cx="180.428571" cy="93.7104405" r="4"></circle>
        <circle id="Oval" fill-opacity="0.200000003" fill="#39A6B3" cx="51.8571429" cy="162.442553" r="4"></circle>
        <circle id="Oval" fill-opacity="0.200000003" fill="#52B37A" cx="94.7142857" cy="102.145872" r="4"></circle>
        <circle id="Oval" fill-opacity="0.200000003" fill="#52B37A" cx="137.571429" cy="106.832529" r="4"></circle>
        <circle id="Oval" fill-opacity="0.200000003" fill="#52B37A" cx="137.571429" cy="106.832529" r="4"></circle>
        <circle id="Oval" fill-opacity="0.200000003" fill="#39A6B3" cx="137.571429" cy="154.743645" r="4"></circle>
        <circle id="Oval" fill-opacity="0.200000003" fill="#52B37A" cx="180.428571" cy="115.797373" r="4"></circle>
        <circle id="Oval" fill-opacity="0.200000003" fill="#52B37A" cx="180.428571" cy="90.6638295" r="4"></circle>
        <circle id="Oval" fill-opacity="0.200000003" fill="#846CB3" cx="51.8571429" cy="235.704911" r="4"></circle>
        <circle id="Oval" fill-opacity="0.200000003" fill="#52B37A" cx="94.7142857" cy="96.8480418" r="4"></circle>
        <circle id="Oval" fill-opacity="0.200000003" fill="#52B37A" cx="137.571429" cy="90.6638295" r="4"></circle>
        <circle id="Oval" fill-opacity="0.200000003" fill="#39A6B3" cx="137.571429" cy="173.221686" r="4"></circle>
        <circle id="Oval" fill-opacity="0.200000003" fill="#39A6B3" cx="51.8571429" cy="173.221686" r="4"></circle>
        <circle id="Oval" fill-opacity="0.200000003" fill="#52B37A" cx="180.428571" cy="99.0805159" r="4"></circle>
        <circle id="Oval" fill-opacity="0.200000003" fill="#846CB3" cx="137.571429" cy="229.284461" r="4"></circle>
        <circle id="Oval" fill-opacity="0.200000003" fill="#52B37A" cx="223.285714" cy="77.152853" r="4"></circle>
        <circle id="Oval" fill-opacity="0.200000003" fill="#52B37A" cx="180.428571" cy="85.1260687" r="4"></circle>
        <circle id="Oval" fill-opacity="0.200000003" fill="#846CB3" cx="137.571429" cy="231.398874" r="4"></circle>
        <circle id="Oval" fill-opacity="0.200000003" fill="#52B37A" cx="137.571429" cy="115.797373" r="4"></circle>
        <circle id="Oval" fill-opacity="0.200000003" fill="#52B37A" cx="137.571429" cy="102.145872" r="4"></circle>
        <circle id="Oval" fill-opacity="0.200000003" fill="#846CB3" cx="94.7142857" cy="235.704911" r="4"></circle>
        <circle id="Oval" fill-opacity="0.200000003" fill="#846CB3" cx="180.428571" cy="232.867894" r="4"></circle>
        <circle id="Oval" fill-opacity="0.200000003" fill="#52B37A" cx="180.428571" cy="85.4607557" r="4"></circle>
        <circle id="Oval" fill-opacity="0.200000003" fill="#52B37A" cx="180.428571" cy="115.797373" r="4"></circle>
        <circle id="Oval" fill-opacity="0.200000003" fill="#52B37A" cx="180.428571" cy="115.797373" r="4"></circle>
        <circle id="Oval" fill-opacity="0.200000003" fill="#52B37A" cx="223.285714" cy="77.2814097" r="4"></circle>
        <circle id="Oval" fill-opacity="0.200000003" fill="#52B37A" cx="137.571429" cy="115.797373" r="4"></circle>
        <circle id="Oval" fill-opacity="0.200000003" fill="#846CB3" cx="137.571429" cy="230.826089" r="4"></circle>
        <circle id="Oval" fill-opacity="0.200000003" fill="#52B37A" cx="266.142857" cy="71.7677084" r="4"></circle>
        <circle id="Oval" fill-opacity="0.200000003" fill="#39A6B3" cx="137.571429" cy="170.097248" r="4"></circle>
        <circle id="Oval" fill-opacity="0.200000003" fill="#52B37A" cx="223.285714" cy="80.6117594" r="4"></circle>
        <circle id="Oval" fill-opacity="0.200000003" fill="#52B37A" cx="223.285714" cy="89.8949219" r="4"></circle>
        <circle id="Oval" fill-opacity="0.200000003" fill="#52B37A" cx="266.142857" cy="85.1260687" r="4"></circle>
        <circle id="Oval" fill-opacity="0.200000003" fill="#52B37A" cx="266.142857" cy="71.9675167" r="4"></circle>
        <circle id="Oval" fill-opacity="0.200000003" fill="#52B37A" cx="223.285714" cy="99.0805159" r="4"></circle>
        <circle id="Oval" fill-opacity="0.200000003" fill="#52B37A" cx="266.142857" cy="115.797373" r="4"></circle>
        <circle id="Oval" fill-opacity="0.200000003" fill="#39A6B3" cx="94.7142857" cy="179.198249" r="4"></circle>
        <circle id="Oval" fill-opacity="0.200000003" fill="#52B37A" cx="180.428571" cy="106.832529" r="4"></circle>
        <circle id="Oval" fill-opacity="0.200000003" fill="#52B37A" cx="266.142857" cy="80.4782663" r="4"></circle>
        <circle id="Oval" fill-opacity="0.200000003" fill="#39A6B3" cx="180.428571" cy="179.198249" r="4"></circle>
        <circle id="Oval" fill-opacity="0.200000003" fill="#52B37A" cx="180.428571" cy="106.832529" r="4"></circle>
        <circle id="Oval" fill-opacity="0.200000003" fill="#52B37A" cx="223.285714" cy="80.4782663" r="4"></circle>
        <circle id="Oval" fill-opacity="0.200000003" fill="#52B37A" cx="266.142857" cy="96.8480418" r="4"></circle>
        <circle id="Oval" fill-opacity="0.200000003" fill="#52B37A" cx="180.428571" cy="115.797373" r="4"></circle>
        <circle id="Oval" fill-opacity="0.200000003" fill="#52B37A" cx="223.285714" cy="106.832529" r="4"></circle>
        <circle id="Oval" fill-opacity="0.200000003" fill="#52B37A" cx="266.142857" cy="92.5375896" r="4"></circle>
        <circle id="Oval" fill-opacity="0.200000003" fill="#52B37A" cx="137.571429" cy="115.797373" r="4"></circle>
        <circle id="Oval" fill-opacity="0.200000003" fill="#52B37A" cx="223.285714" cy="102.145872" r="4"></circle>
        <circle id="Oval" fill-opacity="0.200000003" fill="#52B37A" cx="266.142857" cy="88.0285389" r="4"></circle>
        <circle id="Oval" fill-opacity="0.200000003" fill="#52B37A" cx="223.285714" cy="99.0805159" r="4"></circle>
        <circle id="Oval" fill-opacity="0.200000003" fill="#52B37A" cx="180.428571" cy="115.797373" r="4"></circle>
        <circle id="Oval" fill-opacity="0.200000003" fill="#846CB3" cx="94.7142857" cy="242.599124" r="4"></circle>
        <circle id="Oval" fill-opacity="0.200000003" fill="#39A6B3" cx="266.142857" cy="173.221686" r="4"></circle>
        <circle id="Oval" fill-opacity="0.200000003" fill="#39A6B3" cx="137.571429" cy="173.221686" r="4"></circle>
        <circle id="Oval" fill-opacity="0.200000003" fill="#52B37A" cx="180.428571" cy="106.832529" r="4"></circle>
        <circle id="Oval" fill-opacity="0.200000003" fill="#39A6B3" cx="137.571429" cy="173.221686" r="4"></circle>
        <circle id="Oval" fill-opacity="0.200000003" fill="#846CB3" cx="51.8571429" cy="239.610843" r="4"></circle>
        <circle id="Oval" fill-opacity="0.200000003" fill="#52B37A" cx="223.285714" cy="115.797373" r="4"></circle>
        <circle id="Oval" fill-opacity="0.200000003" fill="#846CB3" cx="223.285714" cy="239.610843" r="4"></circle>
        <circle id="Oval" fill-opacity="0.200000003" fill="#52B37A" cx="223.285714" cy="106.832529" r="4"></circle>
        <circle id="Oval" fill-opacity="0.200000003" fill="#52B37A" cx="266.142857" cy="74.5834277" r="4"></circle>
        <circle id="Oval" fill-opacity="0.200000003" fill="#846CB3" cx="51.8571429" cy="239.610843" r="4"></circle>
        <circle id="Oval" fill-opacity="0.200000003" fill="#52B37A" cx="223.285714" cy="81.6656768" r="4"></circle>
        <circle id="Oval" fill-opacity="0.200000003" fill="#52B37A" cx="137.571429" cy="106.832529" r="4"></circle>
        <g transform="translate(9.000000, 305.000000)">
            <polyline id="Shape" stroke="#000000" points="0.5 7 0.5 1.5 300.5 1.5 300.5 7"></polyline>
            <g>
                <path d="M0.5,1 L0.5,7" id="Shape" stroke="#000000"></path>
                <text id="0.0" fill="#000000" font-family="Helvetica" font-size="10" font-weight="normal">
                    <tspan x="0.5" y="10">0.0</tspan>
                </text>
            </g>
            <g transform="translate(21.428571, 0.000000)">
                <path d="M0.5,1 L0.5,7" id="Shape" stroke="#000000"></path>
                <text id="0.5" fill="#000000" font-family="Helvetica" font-size="10" font-weight="normal">
                    <tspan x="0.5" y="10">0.5</tspan>
                </text>
            </g>
            <g transform="translate(42.857143, 0.000000)">
                <path d="M0.5,1 L0.5,7" id="Shape" stroke="#000000"></path>
                <text id="1.0" fill="#000000" font-family="Helvetica" font-size="10" font-weight="normal">
                    <tspan x="0.5" y="10">1.0</tspan>
                </text>
            </g>
            <g transform="translate(64.285714, 0.000000)">
                <path d="M0.5,1 L0.5,7" id="Shape" stroke="#000000"></path>
                <text id="1.5" fill="#000000" font-family="Helvetica" font-size="10" font-weight="normal">
                    <tspan x="0.5" y="10">1.5</tspan>
                </text>
            </g>
            <g transform="translate(85.714286, 0.000000)">
                <path d="M0.5,1 L0.5,7" id="Shape" stroke="#000000"></path>
                <text id="2.0" fill="#000000" font-family="Helvetica" font-size="10" font-weight="normal">
                    <tspan x="0.5" y="10">2.0</tspan>
                </text>
            </g>
            <g transform="translate(107.142857, 0.000000)">
                <path d="M0.5,1 L0.5,7" id="Shape" stroke="#000000"></path>
                <text id="2.5" fill="#000000" font-family="Helvetica" font-size="10" font-weight="normal">
                    <tspan x="0.5" y="10">2.5</tspan>
                </text>
            </g>
            <g transform="translate(128.571429, 0.000000)">
                <path d="M0.5,1 L0.5,7" id="Shape" stroke="#000000"></path>
                <text id="3.0" fill="#000000" font-family="Helvetica" font-size="10" font-weight="normal">
                    <tspan x="0.5" y="10">3.0</tspan>
                </text>
            </g>
            <g transform="translate(150.000000, 0.000000)">
                <path d="M0.5,1 L0.5,7" id="Shape" stroke="#000000"></path>
                <text id="3.5" fill="#000000" font-family="Helvetica" font-size="10" font-weight="normal">
                    <tspan x="0.5" y="10">3.5</tspan>
                </text>
            </g>
            <g transform="translate(171.428571, 0.000000)">
                <path d="M0.5,1 L0.5,7" id="Shape" stroke="#000000"></path>
                <text id="4.0" fill="#000000" font-family="Helvetica" font-size="10" font-weight="normal">
                    <tspan x="0.5" y="10">4.0</tspan>
                </text>
            </g>
            <g transform="translate(192.857143, 0.000000)">
                <path d="M0.5,1 L0.5,7" id="Shape" stroke="#000000"></path>
                <text id="4.5" fill="#000000" font-family="Helvetica" font-size="10" font-weight="normal">
                    <tspan x="0.5" y="10">4.5</tspan>
                </text>
            </g>
            <g transform="translate(214.285714, 0.000000)">
                <path d="M0.5,1 L0.5,7" id="Shape" stroke="#000000"></path>
                <text id="5.0" fill="#000000" font-family="Helvetica" font-size="10" font-weight="normal">
                    <tspan x="0.5" y="10">5.0</tspan>
                </text>
            </g>
            <g transform="translate(235.714286, 0.000000)">
                <path d="M0.5,1 L0.5,7" id="Shape" stroke="#000000"></path>
                <text id="5.5" fill="#000000" font-family="Helvetica" font-size="10" font-weight="normal">
                    <tspan x="0.5" y="10">5.5</tspan>
                </text>
            </g>
            <g transform="translate(257.142857, 0.000000)">
                <path d="M0.5,1 L0.5,7" id="Shape" stroke="#000000"></path>
                <text id="6.0" fill="#000000" font-family="Helvetica" font-size="10" font-weight="normal">
                    <tspan x="0.5" y="10">6.0</tspan>
                </text>
            </g>
            <g transform="translate(278.571429, 0.000000)">
                <path d="M0.5,1 L0.5,7" id="Shape" stroke="#000000"></path>
                <text id="6.5" fill="#000000" font-family="Helvetica" font-size="10" font-weight="normal">
                    <tspan x="0.5" y="10">6.5</tspan>
                </text>
            </g>
            <g transform="translate(300.000000, 0.000000)">
                <path d="M0.5,1 L0.5,7" id="Shape" stroke="#000000"></path>
                <text id="7.0" fill="#000000" font-family="Helvetica" font-size="10" font-weight="normal">
                    <tspan x="0.5" y="10">7.0</tspan>
                </text>
            </g>
        </g>
        <g>
            <polyline id="Shape" stroke="#000000" points="3 6.5 9.5 6.5 9.5 306.5 3 306.5"></polyline>
            <g transform="translate(0.000000, 0.045312)">
                <path d="M9,10.5 L3,10.5" id="Shape" stroke="#000000"></path>
                <text id="4.5" fill="#000000" font-family="Helvetica" font-size="10" font-weight="normal">
                    <tspan x="0" y="10.5">4.5</tspan>
                </text>
            </g>
            <g transform="translate(0.000000, 32.929166)">
                <path d="M9,10.5 L3,10.5" id="Shape" stroke="#000000"></path>
                <text id="4.0" fill="#000000" font-family="Helvetica" font-size="10" font-weight="normal">
                    <tspan x="0" y="10.5">4.0</tspan>
                </text>
            </g>
            <g transform="translate(0.000000, 65.813021)">
                <path d="M9,10.5 L3,10.5" id="Shape" stroke="#000000"></path>
                <text id="3.5" fill="#000000" font-family="Helvetica" font-size="10" font-weight="normal">
                    <tspan x="0" y="10.5">3.5</tspan>
                </text>
            </g>
            <g transform="translate(0.000000, 98.696875)">
                <path d="M9,10.5 L3,10.5" id="Shape" stroke="#000000"></path>
                <text id="3.0" fill="#000000" font-family="Helvetica" font-size="10" font-weight="normal">
                    <tspan x="0" y="10.5">3.0</tspan>
                </text>
            </g>
            <g transform="translate(0.000000, 131.580729)">
                <path d="M9,10.5 L3,10.5" id="Shape" stroke="#000000"></path>
                <text id="2.5" fill="#000000" font-family="Helvetica" font-size="10" font-weight="normal">
                    <tspan x="0" y="10.5">2.5</tspan>
                </text>
            </g>
            <g transform="translate(0.000000, 164.464583)">
                <path d="M9,10.5 L3,10.5" id="Shape" stroke="#000000"></path>
                <text id="2.0" fill="#000000" font-family="Helvetica" font-size="10" font-weight="normal">
                    <tspan x="0" y="10.5">2.0</tspan>
                </text>
            </g>
            <g transform="translate(0.000000, 197.348437)">
                <path d="M9,10.5 L3,10.5" id="Shape" stroke="#000000"></path>
                <text id="1.5" fill="#000000" font-family="Helvetica" font-size="10" font-weight="normal">
                    <tspan x="0" y="10.5">1.5</tspan>
                </text>
            </g>
            <g transform="translate(0.000000, 230.232292)">
                <path d="M9,10.5 L3,10.5" id="Shape" stroke="#000000"></path>
                <text id="1.0" fill="#000000" font-family="Helvetica" font-size="10" font-weight="normal">
                    <tspan x="0" y="10.5">1.0</tspan>
                </text>
            </g>
            <g transform="translate(0.000000, 263.116146)">
                <path d="M9,10.5 L3,10.5" id="Shape" stroke="#000000"></path>
                <text id="0.5" fill="#000000" font-family="Helvetica" font-size="10" font-weight="normal">
                    <tspan x="0" y="10.5">0.5</tspan>
                </text>
            </g>
            <g transform="translate(0.000000, 296.000000)">
                <path d="M9,10.5 L3,10.5" id="Shape" stroke="#000000"></path>
                <text id="0.0" fill="#000000" font-family="Helvetica" font-size="10" font-weight="normal">
                    <tspan x="0" y="10.5">0.0</tspan>
                </text>
            </g>
        </g>
        <path d="M56.8571429,201 L46.8571429,201" id="Shape" stroke="#FF0000" stroke-width="3" fill="#000000"></path>
        <path d="M99.7142857,182 L89.7142857,182" id="Shape" stroke="#FF0000" stroke-width="3" fill="#000000"></path>
        <path d="M142.571429,145 L132.571429,145" id="Shape" stroke="#FF0000" stroke-width="3" fill="#000000"></path>
        <path d="M185.428571,115 L175.428571,115" id="Shape" stroke="#FF0000" stroke-width="3" fill="#000000"></path>
        <path d="M228.285714,105 L218.285714,105" id="Shape" stroke="#FF0000" stroke-width="3" fill="#000000"></path>
        <path d="M271.142857,95 L261.142857,95" id="Shape" stroke="#FF0000" stroke-width="3" fill="#000000"></path>
    </g>
</svg>