<svg width="1000" height="1000"><g><g><path d="M931.0369268900213,390.92223372418084L948.6682901647255,403.5101674462203L946.3174417281007,446.10615387126745L859.3360495728739,444.1702849676949L845.2309589531105,466.43098242201086L795.8631417839279,449.977802479043L781.7580511641609,438.36249984362803L781.7580511641609,438.36249984362803L774.7055058542792,401.5736441051704L752.3724457063145,403.5101674462203L744.1444761781204,360.8997773845622L774.7055058542792,355.0881529691251L753.5478699246305,326.02600871169125L726.5131129034125,324.08829401631374L739.4427793048635,297.9262276727095L786.4597480374177,279.5126265720028L856.9852011362455,289.2043311566231L878.1428370658978,269.8201761010132L878.1428370658978,269.8201761010132L878.1428370658978,269.8201761010132L878.1428370658978,269.8201761010132L878.1428370658978,269.8201761010132L888.7216550307203,283.38939790391305L906.3530183054281,379.30148633092176Z"></path><path d="M931.0369268900213,390.92223372418084L972.1767745310026,375.42766568402294L987.457289369082,385.11199399625184L987.457289369082,385.11199399625184L1023.8954401368137,405.44666102764313L1028.5971370100706,429.65032031410374L1028.5971370100706,429.65032031410374L1027.4217127917545,440.29845795503934L1026.2462885734421,440.29845795503934L1027.4217127917545,440.29845795503934L1026.2462885734421,440.29845795503934L1018.0183190452444,464.4954256617202L1054.4564698129725,499.3309009749937L1006.2640768621059,477.0760133696167L1006.2640768621059,477.0760133696167L987.457289369082,470.30200678027177L967.4750776577494,492.5580902100337L932.2123511083337,475.1406200610072L940.4403206365278,499.3309009749937L909.879290960369,503.20091519580455L852.2835042629922,507.07081062172074L852.2835042629922,507.07081062172074L845.2309589531105,466.43098242201086L859.3360495728739,444.1702849676949L946.3174417281007,446.10615387126745L948.6682901647255,403.5101674462203Z"></path><path d="M833.4767167699683,231.042912384175L833.4767167699683,231.042912384175L805.266535530438,205.83128548591048L847.5818073897353,177.7046671461576L854.6343526996206,138.89901598046708L839.3538378615376,104.9342534722964L839.3538378615376,103.9636969751009L879.3182612842102,68.04784280584136L886.3708065940918,40.861460796164465L939.2648964182154,73.87273186747916L968.6505018760618,35.03504307902767L1001.562379988849,38.91935154068051L1027.4217127917545,20.467818033066578L985.1064409324536,-3.814639945674571L1035.6496823199523,-37.81795913694077L1052.1056213763477,-26.158642543916358L1047.4039245030908,6.870219109914615L1094.420893235645,45.716602766071446L1110.8768322920369,47.65860708976106L1103.8242869821552,92.3164350742154L1081.4912268341905,102.02256152323389L1067.3861362144235,155.39287959643116L1080.3158026158744,186.43429019820178L1036.8251065382647,224.25566329785215L1035.6496823199523,255.28010153296054L1063.8598635594826,305.6785175615951L1013.3166221719875,326.02600871169125L1018.0183190452444,364.7740447315009L995.6852588972797,383.1751878801588L1023.8954401368137,405.44666102764313L987.457289369082,385.11199399625184L987.457289369082,385.11199399625184L972.1767745310026,375.42766568402294L931.0369268900213,390.92223372418084L906.3530183054281,379.30148633092176L888.7216550307203,283.38939790391305L878.1428370658978,269.8201761010132L878.1428370658978,269.8201761010132L878.1428370658978,269.8201761010132L878.1428370658978,269.8201761010132L878.1428370658978,269.8201761010132Z"></path><path d="M781.7580511641609,438.36249984362803L781.7580511641609,438.36249984362803L795.8631417839279,449.977802479043L786.4597480374177,486.75253421638627L786.4597480374177,486.75253421638627L786.4597480374177,527.3858130047593L758.2495667978837,529.3204044322192L757.0741425795713,558.335714571047L741.793627741492,558.335714571047L741.793627741492,558.335714571047L704.1800527554478,547.6975427312573L648.9351144946995,560.2698312155844L603.0935699804577,547.6975427312573L550.1994801563378,553.500293172503L527.8664200083731,543.8288940810744L530.2172684450015,470.30200678027177L574.8833887409273,436.4265119939664L574.8833887409273,436.4265119939664L581.935934050809,407.3831248507486L581.935934050809,407.3831248507486L586.6376309240623,388.98551691706234L677.1452957342299,381.23835199214227L677.1452957342299,381.23835199214227L675.9698715159175,353.15088525381L674.7944472976051,353.15088525381L675.9698715159175,353.15088525381L674.7944472976051,353.15088525381L671.2681746426606,322.1505495129095L726.5131129034125,324.08829401631374L753.5478699246305,326.02600871169125L774.7055058542792,355.0881529691251L744.1444761781204,360.8997773845622L752.3724457063145,403.5101674462203L774.7055058542792,401.5736441051704Z"></path><path d="M578.4096613958645,212.61952784589084L597.2164488888884,281.451027155068L647.7596902763835,322.1505495129095L671.2681746426606,322.1505495129095L674.7944472976051,353.15088525381L675.9698715159175,353.15088525381L674.7944472976051,353.15088525381L675.9698715159175,353.15088525381L677.1452957342299,381.23835199214227L677.1452957342299,381.23835199214227L586.6376309240623,388.98551691706234L581.935934050809,407.3831248507486L581.935934050809,407.3831248507486L574.8833887409273,436.4265119939664L574.8833887409273,436.4265119939664L530.2172684450015,470.30200678027177L527.8664200083731,543.8288940810744L507.8842082970368,590.244846660149L457.34096690954175,626.9786980647477L413.85027083192836,636.6437233386969L389.16636224733884,604.7463291825115L392.6926349022833,562.2039181962027L493.7791176772698,436.4265119939664L449.11299738134767,407.3831248507486L403.27145286710584,414.1605139011808L426.77993723338295,303.74048982142995L453.8146942546009,312.4613798317441L466.74436065605187,261.09633282168943L459.69181534616655,224.25566329785215L430.3062098883238,234.92117617183249L424.4290887967545,212.61952784589084L485.5511481490721,179.64463569746295L531.3926926633139,203.89172043955477Z"></path><path d="M799.3894144388723,715.8690146626177L744.1444761781204,752.5663146742882L717.1097191569024,704.2781762936647L672.4435988609766,738.0818130135594L634.8300238749325,736.1504205242236L627.7774785650472,689.7881310028897L592.5147520156352,689.7881310028897L544.3223590647685,706.210056622338L477.323178620878,742.9101649328222L477.323178620878,767.0491543180688L431.4816341066362,752.5663146742882L418.55196770518523,760.2907026149769L353.90363569792316,693.6523057780287L396.21890755722416,667.5668292138289L413.85027083192836,636.6437233386969L457.34096690954175,626.9786980647477L507.8842082970368,590.244846660149L527.8664200083731,543.8288940810744L550.1994801563378,553.500293172503L603.0935699804577,547.6975427312573L648.9351144946995,560.2698312155844L704.1800527554478,547.6975427312573L741.793627741492,558.335714571047L741.793627741492,558.335714571047L757.0741425795713,558.335714571047L785.2843238191017,557.3686451245303L821.7224745868334,594.1120716967416L847.5818073897353,667.5668292138289Z"></path><path d="M757.0741425795713,558.335714571047L758.2495667978837,529.3204044322192L786.4597480374177,527.3858130047593L786.4597480374177,486.75253421638627L786.4597480374177,486.75253421638627L795.8631417839279,449.977802479043L845.2309589531105,466.43098242201086L852.2835042629922,507.07081062172074L852.2835042629922,507.07081062172074L909.879290960369,503.20091519580455L934.5631995449585,562.2039181962027L901.6513214321749,713.9372821977304L931.0369268900213,721.66403464631L946.3174417281007,791.1835283629189L933.3877753266461,819.1736231757241L878.1428370658978,813.3830781824945L875.7919886292693,782.4956852499163L798.2139902205563,728.4245549860207L799.3894144388723,715.8690146626177L847.5818073897353,667.5668292138289L821.7224745868334,594.1120716967416L785.2843238191017,557.3686451245303Z"></path><path d="M909.879290960369,503.20091519580455L940.4403206365278,499.3309009749937L932.2123511083337,475.1406200610072L967.4750776577494,492.5580902100337L999.2115315522242,505.13587775753695L1033.2988338833238,562.2039181962027L1028.5971370100706,582.5100408296857L998.0361073339081,580.5762652490375L998.0361073339081,580.5762652490375L1007.4395010804183,606.6797342181089L1086.1929237074437,669.4992716928973L1107.350559637096,673.3640678599186L1113.2276807286617,710.0737285555952L1100.2980143272107,744.8414539821097L1035.6496823199523,762.2217257414886L1008.6149252987343,689.7881310028897L931.0369268900213,721.66403464631L901.6513214321749,713.9372821977304L934.5631995449585,562.2039181962027Z"></path><path d="M1100.2980143272107,744.8414539821097L1113.2276807286617,710.0737285555952L1107.350559637096,673.3640678599186L1086.1929237074437,669.4992716928973L1007.4395010804183,606.6797342181089L998.0361073339081,580.5762652490375L998.0361073339081,580.5762652490375L1028.5971370100706,582.5100408296857L1033.2988338833238,562.2039181962027L999.2115315522242,505.13587775753695L967.4750776577494,492.5580902100337L987.457289369082,470.30200678027177L1006.2640768621059,477.0760133696167L1006.2640768621059,477.0760133696167L1054.4564698129725,499.3309009749937L1085.0174994891313,535.1240006227017L1124.9819229118038,555.4344839819969L1162.5954978978443,539.9601267352846L1209.6124666303986,517.7124105844705L1246.0506173981303,537.0584733261057L1246.0506173981303,537.0584733261057L1266.0328291094665,547.6975427312573L1322.4531915885273,523.5165410967747L1363.5930392295122,538.0256985484884L1429.4167954550867,578.6424600169557L1420.0134017085802,555.4344839819969L1451.7498556030514,573.8078172033565L1471.7320673143877,604.7463291825115L1515.2227633919974,614.4130580158671L1474.0829157510125,706.210056622338L1488.1880063707795,730.3560657101043L1450.5744313847354,750.6351438245911L1403.5574626521848,793.114078972314L1422.364250145205,817.2434710194357L1408.259159525438,841.3682524833857L1370.6455845393975,846.192655707302L1335.3828579899782,924.3223222452216L1309.5235251870727,906.9643503844563L1313.0497978420135,863.55898132734L1329.505736898409,844.262916536376L1321.2777673702149,815.3132893553848L1296.5938587856253,802.7663892074779L1256.6294353629528,825.9289233663294L1233.1209509966757,767.0491543180688L1184.9285580458054,783.4610306781542L1133.209892439998,782.4956852499163L1136.7361650949424,748.7039434267499Z"></path><path d="M1187.2794064824338,253.34129807107092L1187.2794064824338,253.34129807107092L1189.6302549190623,249.46360159157484L1217.8404361585963,266.91229548973206L1223.7175572501656,320.2127752001252L1304.8218283138194,340.55791891126137L1290.7167376940524,377.3645908952458L1345.9616759548044,377.3645908952458L1349.4879486097452,388.98551691706234L1304.8218283138194,429.65032031410374L1266.0328291094665,547.6975427312573L1246.0506173981303,537.0584733261057L1246.0506173981303,537.0584733261057L1209.6124666303986,517.7124105844705L1162.5954978978443,539.9601267352846L1159.0692252429035,507.07081062172074L1133.209892439998,449.977802479043L1136.7361650949424,429.65032031410374L1104.9997112004676,423.841866018789L1102.6488627638391,360.8997773845622L1126.1573471301162,353.15088525381L1115.57852916529,303.74048982142995L1143.7887104048277,273.6972458052478Z"></path><path d="M1054.4564698129725,499.3309009749937L1018.0183190452444,464.4954256617202L1026.2462885734421,440.29845795503934L1027.4217127917545,440.29845795503934L1026.2462885734421,440.29845795503934L1027.4217127917545,440.29845795503934L1028.5971370100706,429.65032031410374L1028.5971370100706,429.65032031410374L1023.8954401368137,405.44666102764313L995.6852588972797,383.1751878801588L1018.0183190452444,364.7740447315009L1013.3166221719875,326.02600871169125L1063.8598635594826,305.6785175615951L1035.6496823199523,255.28010153296054L1036.8251065382647,224.25566329785215L1080.3158026158744,186.43429019820178L1154.3675283696502,210.68006737651012L1189.6302549190623,249.46360159157484L1187.2794064824338,253.34129807107092L1187.2794064824338,253.34129807107092L1143.7887104048277,273.6972458052478L1115.57852916529,303.74048982142995L1126.1573471301162,353.15088525381L1102.6488627638391,360.8997773845622L1104.9997112004676,423.841866018789L1136.7361650949424,429.65032031410374L1133.209892439998,449.977802479043L1159.0692252429035,507.07081062172074L1162.5954978978443,539.9601267352846L1124.9819229118038,555.4344839819969L1085.0174994891313,535.1240006227017Z"></path><path d="M833.4767167699683,231.042912384175L833.4767167699683,231.042912384175L878.1428370658978,269.8201761010132L856.9852011362455,289.2043311566231L786.4597480374177,279.5126265720028L739.4427793048635,297.9262276727095L726.5131129034125,324.08829401631374L671.2681746426606,322.1505495129095L647.7596902763835,322.1505495129095L597.2164488888884,281.451027155068L578.4096613958645,212.61952784589084L552.5503285929626,165.09414274879964L583.1113582691214,96.1989754964452L659.513932459522,100.0813961269887L655.9876598045812,59.31000353938725L694.7766590089414,59.31000353938725L693.6012347906253,2.984920837683603L734.7410824316066,4.927584975812351L724.1622644667841,23.381398001598427L738.2673550865475,51.54252580481989L741.793627741492,96.1989754964452L786.4597480374177,110.75743526197039L839.3538378615376,104.9342534722964L839.3538378615376,103.9636969751009L839.3538378615376,104.9342534722964L854.6343526996206,138.89901598046708L847.5818073897353,177.7046671461576L805.266535530438,205.83128548591048Z"></path></g><g><g><path d="M915.1581126107922,327.03202067244274L913.5423648917313,321.55910548122483L911.9939156564833,321.6217342688178L912.1473006791639,320.2704626223567L914.4727375632101,320.15878441993846L916.7209155437668,320.3794421408966L918.9290183036064,320.68327201140346L921.8810586821019,318.4867541788117L922.968176755181,316.23384239251027L925.3070566100141,317.06528770766454L927.6459364650182,317.89672753484047L928.6875071092654,318.26698989930446L927.1726187269487,321.3071377718152L926.2210114226546,323.57447800309455L924.5462266808172,326.3866076072445L924.3640966765051,326.726877019697L922.048868712991,326.39994124484656L919.5526706969176,326.3916986229451L917.1746570959513,326.73819451377494Z" class="hulls"></path><path d="M714.7121494764979,370.27100001201325L714.272278243152,369.1349282781157L713.7385370316697,367.7228854928835L713.5326305626404,367.1307943487918L712.5029814765912,363.0538993183727L712.4786153689674,362.78064956737217L712.4502252207931,362.20061399348197L712.454306001473,360.29247206868604L712.4694553572808,359.6761639969918L712.5604044993306,358.76286361642997L712.7984051134408,357.9263361114572L713.9400603064751,353.92677199613536L715.2315596793596,350.0216964332358L718.5875899228449,350.38279513160523L722.038762250726,350.37576973556133L724.0804615230663,350.34731485428347L728.8437850105765,350.3430217772693L730.4383809573737,350.35233539971523L730.4365953460983,350.69267353389296L738.1812178397777,362.0469008318614L741.4747116872095,361.2702348425955L744.768422904046,360.4932614000427L748.0618627269032,359.716345852823L751.3464267042109,358.9557548118755L754.6429709476943,358.19273095348035L757.9518810459813,357.41078362055123L761.2416801179534,356.6178290588141L764.5332190611807,355.9422718424612L767.8221847178393,354.9393956364074L768.6718519947972,354.72741714482254L768.9326012986203,355.35883022761845L765.5709641945105,356.1460707838269L762.2093270904043,356.9333064204402L758.8476899862944,357.72053713799687L755.4860528823592,358.50776293646777L752.1244157782494,359.29498381598387L748.7627786741432,360.08219977679255L745.401141570037,360.8694108185882L743.9002694417395,364.09610570713994L740.3937625719955,363.27080948848743L737.0234023721496,364.04589012500946L733.6480029419727,364.8267748065264L730.2820867476403,365.62790895091894L726.9138603953688,366.42541209860065L723.5456237967919,367.22302719372965L720.1545108992759,368.1932998629636L716.844004942257,369.45599641905574Z" class="hulls"></path><path d="M799.5670163191753,543.5847948652518L799.3908930389625,543.0373240550543L799.2642761088573,542.1514457894664L801.9183018926451,538.6576381843333L804.528083817786,535.1255271204573L806.8721021121746,524.8334399803134L806.8355977907777,524.0249545121187L810.3658811964488,519.77219341608L810.2969916087095,518.2815420347761L811.1498401426688,516.9236171789671L814.2728026842524,514.2136564419197L816.1788343064436,512.5596627787454L820.6248960372504,512.8340365459444L823.2564914975337,509.73000350792427L826.3630552797658,506.3313844867371L828.6239312072903,502.92930100669037L829.7824112996132,503.56122095679166L827.8420252761607,506.3327098527225L826.1605907719313,517.6884985565703L828.350191914742,522.5122723154636L828.6452287283391,522.7089114210685L828.5684912218894,523.497228021195L825.7227567682203,522.3786188958184L822.0465622029296,521.8152034465456L817.6274627177372,522.5986071842926L812.7391114955353,525.748627416353L809.687134877604,530.1353665521892L807.3268942112009,533.5438335926883L804.6826221713127,536.9822007282492L802.0115203552523,540.44816574578Z" class="hulls"></path><path d="M882.2269995587558,451.0987712834758L880.2612462425896,450.31877146832994L878.3364589389312,450.53629041106615L876.41306070879,450.76079333157395L875.6841260801848,450.84587594702316L874.8089465331759,448.00764138366503L873.9337669863344,445.16934290477366L873.0268508439658,442.3538589096861L872.1114872558355,439.5503256233642L871.1879646887355,436.7533434042416L870.5919427544759,434.9481972721551L869.7893091229816,432.32161578760133L871.3975381950513,431.79296586879354L871.6870190784757,431.75739982484083L873.6228360278728,431.6519723947422L874.3327137781271,431.61331138937385L876.278235035843,431.82024919720425L878.2110459891301,431.63157905057597L879.7096171271696,431.4656225205981L881.5767719821924,433.8966147830215L883.3401561469327,433.70803133050504L883.366254420187,433.7052402734553L883.6717978380257,436.8480115997663L884.0039673274987,439.9824960873084L884.3222580359106,443.12049957689305L884.4867722318959,444.01947225866024L884.7883333279606,447.1627887091163L885.0898944240289,450.3060267684341L885.1211709062627,450.63202398101566L883.1935564151318,450.9428934190946Z" class="hulls"></path><path d="M856.7905234935788,487.2677147832146L854.2592052303044,486.4418990565173L851.2264423596935,485.4235980993835L850.4698040757139,485.18520945594355L849.0598404336015,484.4816578482569L843.2069464944689,481.74327749409713L842.4686672250464,482.48044225790363L844.2675391308985,478.88014296704205L845.9733502316558,473.8186482441088L844.8857580234762,467.6986364130862L844.6274592125374,466.6261724313663L846.9404681562373,463.49550645725685L849.8139180404869,462.84468779600866L852.3496451881911,461.67558407865L856.6969717643697,458.6919261697476L858.7467529867899,457.2103812360583L860.8487618457948,455.586090245808L863.8059212590997,457.09869201181573L866.3856433523542,458.6251088647259L869.7974095625614,459.9639425933128L872.8447311329073,460.64400803325407L873.0576910417112,460.6915337873943L872.0550135070262,465.4955164488638L872.0158475923781,466.63445728024817L871.8868598185363,467.2583757943212L870.7251101728289,471.9798640141962L869.5821706982861,477.3987090330629L868.9610476258276,480.68798880148097L866.3104603223546,479.8552887161495L861.865286062326,483.7771883815294L861.8306532838396,484.6073053676373L858.8836249980741,486.1628875616734Z" class="hulls"></path><path d="M892.317389522781,431.2350521002809L889.1439210389763,429.97160093538696L886.9583490229488,430.13709500725963L882.7717822843806,428.04678982586483L879.9601967978233,428.3026416310313L876.5815537912167,428.6391337404348L874.7178391771959,428.8310428646946L874.5169622302783,426.8622292637883L874.2816605765693,424.36026747523283L877.4285938603498,424.00298863205535L880.5766051251048,423.71114604573813L882.3392789314166,423.5587128266925L886.8583686395978,423.2143170020863L890.0989625201291,423.16579067920975L893.190670915672,422.1413732528308L893.874312020529,421.8178973352915L896.5223885788619,425.6120490377798L899.2154896112843,427.4432446640276L900.4902565503289,428.2947501073504L899.9753047454869,430.3157462688687L897.4180246127253,430.66145126515767L894.2707993179029,431.01537829577865Z" class="hulls"></path><path d="M920.1203121074432,359.4089287756069L920.0144288071097,357.0190575739107L917.2942890157574,353.73423901009664L915.4902231758606,352.64067939411325L915.3005030704262,352.52567736017227L915.1878116969128,347.02088056971843L913.3734794943775,344.4872228867898L912.2575886765262,343.69892627571244L912.1835949514025,343.5459575257555L912.0502217138819,343.08087112889916L913.8769873716592,342.4826731959474L915.6977636067786,342.0142781597242L917.5016548310232,341.3734776548663L920.2888208699042,336.26575661747484L920.2888208699042,336.26575661747484L924.1173844273617,331.9480370261008L924.4945200621987,329.43053032207536L924.7405138338108,327.78841237591405L925.0423187811721,327.6291922444798L926.983444392783,328.7435899983975L928.9245700045685,329.8579778938729L929.2051148502178,330.01903609420697L929.7975560517953,330.44262479592L931.680252271075,331.80129193727043L932.1497972380639,332.1401416214212L934.0306965838063,333.5056625568104L934.5331056686409,333.860523157593L933.3459023306641,335.71044204021746L933.737184510439,341.07597776180774L933.8138238180363,341.1277603583585L933.171856924444,342.3150865838252L931.7940895679167,344.8243579183036L930.4171149497051,347.33475477428874L930.1745126245769,347.7770439556771L928.814191319896,347.4252217251342L927.4538700152116,347.0733985119732L923.8701073741395,352.78416695073247L923.423558177019,352.9131595098297L921.6303703486446,358.76449624630914L921.6998821125817,359.06468618176586Z" class="hulls"></path><path d="M956.7395195688041,441.26624420563166L954.7718527075085,439.8480106913339L952.7894451981738,438.54975193001155L950.8319841910416,437.11542757703864L948.2605396011932,437.6289698253386L947.8745341889662,437.56016807952255L947.3623664907609,437.33248278575775L945.5241945083726,435.4285890143801L943.6458837258906,433.63494025703403L941.772700324218,431.83139818364L939.8655457929672,430.0961338443158L938.0411482110103,428.5962993250141L938.3761565387249,426.81207403048757L938.5631447317683,426.482688502394L940.463055484619,427.6904882805975L942.7539724786002,428.38383332034573L945.1474239876916,428.3583447281999L947.073557603253,428.4270960055146L949.2039371931205,428.87775863177376L951.3854507313263,429.3345682443032L953.4592844754479,429.7610784581484L956.9317063779126,427.2571855236456L957.6602179565089,425.82736672996543L959.7419798154733,426.84541034471476L960.1615327922264,427.0505832629424L961.710705546906,427.93769023861387L962.5165564598828,431.6733304434165L962.85005626165,431.8915569340461L962.4635652431461,434.26870463568775L961.0842849088585,436.2231780844595L959.0904862578791,437.7224339450768L957.4171232410117,440.14659257752646Z" class="hulls"></path><path d="M526.4658928881327,381.6230988671159L524.2000178651688,381.17545882737613L521.7419186160259,380.4170842200838L519.3515652225688,379.387625970674L517.9315260796939,378.4913991576759L514.0220475763308,376.6587638902711L513.0001203766697,376.2067147423513L512.314814050209,374.3520417019172L512.2594860660683,374.13839223925606L512.2079860528938,373.71329269000853L512.5134650380605,369.1537562645972L512.5470512794273,368.6524426749529L514.4816019575374,368.89313140147715L517.2620155899858,362.4477858127648L517.3190379755433,361.68160651238577L520.2264994110228,360.9906756337441L522.8456153191255,360.6817056659056L525.7127007215058,359.5988495070487L526.3640882023501,358.92565000761533L528.9348967539008,359.5767597474187L531.6376760855746,360.32238963004784L534.3254842174938,359.8526398782851L536.7458960305194,360.6497811498266L542.7416566619213,355.58784571923024L543.256667298494,354.7754129086534L543.9030164087562,353.7557853416365L545.3448839438897,356.9545916995121L548.6330901508918,358.6662133626087L550.3976582799769,358.3123995038477L551.7973668047853,362.6417313697748L552.3887731856412,363.14074404780695L553.5983116085226,367.8105533695052L553.9681328658626,367.98411059939826L553.7600727830577,368.4700820334692L551.5040933763958,368.02921623855946L549.1167372482087,366.58315097873856L545.8505180617249,368.372507442662L539.9786414041591,372.69283231796L539.5124524368912,374.208058168937L537.7907414541951,374.97964466456324L535.1225749911646,375.1175305249344L531.7541893147645,376.9064344489452L529.8104501657981,376.6754100257822L526.518046888752,381.21394671571034Z" class="hulls"></path><path d="M888.6059487744897,460.18700371806335L888.5426561384375,459.9766804614774L888.4608836546759,459.3225438810623L888.4589433398578,458.7170611349866L888.5085791569145,458.16555755989975L889.4539288952401,456.11122615232307L890.3717811338684,454.02422743311035L891.2896478397015,451.9372093716811L892.2075145455419,449.8501567525236L892.8468868974196,448.39632638992043L894.3492536605809,449.1297901852813L895.8516204235711,449.863249712027L897.3509351010252,450.6137580548093L898.8544052264333,451.3410614127206L900.357875351845,452.06836057352484L901.861345477253,452.7956555375131L903.016398226031,453.3544027633325L902.3932904717913,454.6583201955218L900.8051284908688,454.81812502475805L899.2393509267531,455.2459520374978L897.7305061548577,455.93965366797056L896.6556882235309,456.43380618235096L894.0254915413207,457.6387039208639L893.4900770872227,459.14408429453033L891.9490772031058,459.61376097251195L891.0057435139715,459.90127592129284L889.4425450131203,460.08739577257074Z" class="hulls"></path><path d="M835.2353258888761,496.7412904395169L834.0486950199411,495.7001880230091L835.684938643757,493.2671887974575L837.3158525271901,491.07394444003876L838.9788898091647,488.85320900636725L840.5115209122996,479.6004498859111L839.8847482216188,477.07904864946613L840.010528422732,474.0829026989377L840.5221371867447,472.124746407324L841.6336949650213,472.4568889385846L843.0914981203241,473.3713891623338L842.9298717532765,476.3972932459001L845.4355685841765,483.00462191748375L847.1529213991053,483.6036274575308L847.4710171149636,483.7145776117395L847.5008265774486,484.149826872017L846.5281720759558,487.9146755787224L846.4599026632131,489.9057404183259L844.4846299195342,489.38010765449144L842.5336447642585,488.6309053636942L838.269237295568,491.65514674119186L836.6983862766101,494.1821109007433Z" class="hulls"></path><path d="M853.5864126934466,455.5438701631647L852.4527710060102,454.54323652217863L850.4283713907935,453.3788304579357L849.7567662389447,453.58297461958136L848.5862460355384,452.59150463221886L847.4157258323066,451.6000268460193L846.2452056289003,450.60854126013874L845.0746854254976,449.6170478746644L842.462867652499,449.88296039665875L841.7645253393275,450.68916211577016L841.6046199650082,450.6649139577348L841.0839944415638,450.2673932739708L841.0319335629902,450.0846327542531L842.0546464868421,448.62119930759945L842.739324933551,447.3986716572399L842.872464260472,447.2513187840814L843.0494026017659,447.1347267256933L843.2368221995312,447.0747905338794L844.5153895497351,447.4312014371826L845.6565082566558,448.0685226701462L846.736871283847,448.8268399482331L849.1106567109018,449.0645295873546L849.2580214918999,449.18278113595443L852.7987792774475,447.88672636471165L853.1225991971296,446.8987183983845L853.2537565340899,446.4985416344134L854.3928679589553,446.8823172289849L853.7704802252883,448.66517222677066L853.1480924914431,450.4480020062474L853.4602189409306,454.7040264240495L853.7540630103031,454.97384903626516Z" class="hulls"></path><path d="M1070.754241251725,552.2574294161168L1068.4324842224887,549.093700633035L1066.3741764229962,547.8729545713577L1060.6820710680877,546.8722322544927L1059.2878788839698,548.7352102919831L1057.6312627782718,545.7015624746564L1055.974646672741,542.667841671253L1054.3180305670467,539.6340478771599L1043.593462532157,537.6075779882085L1043.593462532157,537.6075779882085L1041.5645311281696,539.1833265654423L1040.154496214138,540.2784039910766L1037.7079586963446,537.5397588441992L1035.2614211787259,534.8010542139818L1032.8148836611072,532.0622900966264L1031.8623547105635,530.9959702649212L1029.797013689189,527.3825488125294L1027.259594316325,524.8731957209529L1026.9374348219062,524.5002974039089L1029.5967725192932,520.4657918265002L1029.5967725192932,520.4657918265002L1030.8071168730858,519.3977850600786L1031.4467401336733,518.8344772783457L1032.1157411731183,518.2778431454499L1032.7906729727838,517.7445811988437L1033.29330051961,517.3726304652519L1035.521409781144,515.8548340876587L1038.3244311763483,514.2871025414788L1039.4498116123577,513.6461823933205L1042.5558909180618,513.3498443790158L1044.6541195012433,511.72952351481945L1046.4063990100185,513.8172729943326L1051.5409716642353,513.7093466207007L1053.999320619554,511.60151982164825L1056.4576695746946,509.4936577819026L1056.9407142527707,509.2325932382373L1057.1533756125355,509.2531918231398L1059.2499539415294,512.8742731999373L1063.081830111918,511.6181598336552L1065.9751197016376,511.2591515965614L1066.5107326082216,511.19269099392113L1067.382699863134,515.1579323654587L1069.4402829172723,519.7080379436666L1069.9046956962993,520.630605007027L1069.498531424204,524.9834222250793L1068.6008191443943,528.1204213087767L1067.9184877461303,529.7239618050517L1068.839207652698,543.3654616851272L1071.479132893357,547.9017480511393L1073.1720235682806,549.9456940530508L1073.8839427540697,551.2147656732413L1070.9819611206367,552.1815645644383Z" class="hulls"></path><path d="M900.9266294273948,427.96425011975225L897.8805337005688,425.9014368310891L895.9279623766306,425.4835828920768L892.687365865022,421.90622438836726L892.4201773940731,420.2480267796782L884.6511143935713,413.1359767947433L883.503466425449,413.2552313995693L881.9212989350963,413.4196376911568L878.1741853385174,411.4068433829525L874.4091135406779,409.82132086143247L872.7023451076275,409.9875218025991L872.1451994691306,405.8289042767865L872.2384537558428,403.4914337374212L875.002044314966,400.7806251002621L876.7367360853641,396.3476807889674L880.044415076045,396.2458728860365L883.333096897135,395.98012902571645L886.4940991746007,396.19536593713565L889.4674142932308,393.7622617629386L891.9314965293052,394.7809927104099L893.0275029699806,400.2619490847428L896.249106102161,403.1372216589225L897.4160074901556,404.6102869528695L898.6105737210673,409.87899557643686L899.1191204192255,410.6805740214186L899.0125640178339,416.98693673069647L899.3218764125777,423.3677214500058L901.5192284023724,426.7137618320412L901.7745247134517,427.10893774518627Z" class="hulls"></path><path d="M977.4303325388792,426.5998745779216L976.1496531064076,423.9933539175254L974.8689736739325,421.38677934640145L973.4659063657782,418.9165309268719L971.0068601540443,416.7865300318663L970.4899932680091,416.71878910044325L969.6685965545003,412.90882553969277L969.4138464618409,412.8675827575644L969.6645620213785,411.4771516198962L970.799072601083,411.66207128416863L973.7055478611328,408.7221663173841L975.2082677440267,406.42848103828146L976.198438181742,399.8383988498972L976.4265804213828,399.7400597647793L977.068842200395,396.48209171486087L979.0257378084643,395.67651373257104L980.128092551291,398.34162485561683L982.2234343843193,401.21592975448584L984.2829574312673,403.7039003700338L985.1983655223303,403.3180675908952L986.0264935215164,405.31796427615336L986.4046586808727,409.96307563870505L986.8602975949761,411.14158242983103L985.9835563160013,414.2628856070951L986.1601846480735,417.75657181419956L986.0505373261694,418.5887472577888L984.0633968387301,419.971179102562L982.8393496023346,420.16022877651267L980.4201157647294,425.02242683971417L980.4201157647294,425.02242683971417L978.447969466517,426.06295858048543Z" class="hulls"></path><path d="M869.5781776675249,396.43037870927947L867.0154863416064,394.4151100429008L866.7374989775199,392.94432604189205L869.4224139778489,388.27510174801864L869.1925487908848,387.1334437494661L872.601513565598,386.26746643568913L874.8937076079201,385.9219631668093L878.3671392552642,384.95753160143795L881.3908300533003,383.95190442590683L884.4145208513364,382.9462692241941L887.2373069035457,381.9305800731672L890.4752823042909,382.491109104114L893.5606430155422,381.2825340031268L894.4550770036221,380.7901053047972L895.3462715754358,380.7364911240147L897.6253799134247,385.69823799378355L900.5175750956623,387.01110487873666L903.4102215587773,388.3229977872252L903.9546126319947,388.5677082702605L903.9819947841061,388.70812585696694L903.9056216751742,389.8063196327712L903.8375166926926,390.13238071535307L903.3985613508921,391.47143448051065L900.6141919506372,390.2643272715068L898.0932894524522,388.8055332285003L893.9007212090073,389.84786140042706L890.8560358830946,390.61197962514416L888.156280611689,392.42572872521123L884.638301073177,393.28451376112935L881.891815797866,393.22862827136123L878.8216061676831,393.1701422378392L875.664454459351,394.81588069583813L872.6255576655603,395.62200712448976L869.5866608715987,396.4281283963355Z" class="hulls"></path><path d="M797.7205656219485,390.13400116335833L796.7576470323293,389.9378551964619L795.794728442881,389.74170892428083L794.8318098532582,389.5455623469461L793.8688912638099,389.34941546405025L792.9059726741907,389.15326827614626L792.0225407933431,388.9733123174083L791.8381133915354,388.5100114167435L791.8417562795767,388.13103239404154L792.2181927494748,388.14470698496734L793.2421992551645,385.2413102817518L793.2618103380337,383.77188273378124L793.2738643129669,382.86868888711615L794.2428787133613,382.9394438523741L795.1826162503567,383.00806105749507L796.1841145425133,383.02029667379975L797.1542634931393,383.0239619687927L798.12441244394,383.02762726397486L798.4256074821569,383.02876520116115L798.4194740221901,384.6236071112944L798.4133405622197,386.2184288351127L798.4115976237226,386.6716238739609L798.3091924905711,387.44543162612536L798.0846130346436,388.5393817273289L797.743732233721,390.0325261652324Z" class="hulls"></path><path d="M906.1582632904356,392.63223913827096L905.5680410638197,392.604673251044L904.7473346749794,392.3963310747349L903.8726623333896,392.1458591635019L903.747270487409,392.08349211962195L903.8813050441458,391.62486127631564L902.7616713734787,387.71068331545393L901.9743162718732,387.36047115740075L901.1809179134543,387.004318526102L900.4251200946965,386.66504365626315L899.8803772695683,385.3958061920421L899.3356344442618,384.12655594266835L899.2643411040772,383.96044158382574L900.1936172663445,383.6782850587915L901.1228934284372,383.3961279018258L902.0521695907046,383.11397011337976L902.2747373518614,383.0463913707499L902.7424502161921,384.08552615437657L903.9798779610028,384.75087238704145L904.836069705434,385.18703904378344L905.7385317733097,385.6566579749342L906.642097068172,386.1038887799659L907.5456623630307,386.551117997893L908.4492276577184,386.9983456281334L909.3614658646875,387.4084987133101L910.2690105180955,387.82642173556087L910.5905669654712,387.9744976896909L910.2879991359223,388.5188601908594L908.9911590783886,388.7744292126008L908.3506965313791,389.62259810825344L908.06297109156,391.70839842164423L908.0064918296048,391.89727018531994L907.098080711854,392.32527090287476L906.713361236747,392.5065322394803L906.3564457708308,392.5983730013104Z" class="hulls"></path><path d="M762.7911241812726,437.86443025684275L761.154128337479,437.722942119246L761.2490465526826,435.99533252752735L761.3219706183918,435.2461960603978L755.9362349681796,427.2050876552821L754.3590642497111,427.39202875895717L753.3307936791571,427.51390890609764L753.0988413133346,425.36807043758745L750.8629606708382,421.18670906817715L750.2558549114656,420.8778238840314L751.6017943510778,418.127857205749L752.1545762665919,416.99841913314594L754.0666934069995,417.9535392969992L755.9788105472326,418.9086522220168L757.8909276876402,419.8637579080241L759.8030448278732,420.81885635561775L764.5907632822054,418.0820351037255L765.6027808362524,416.1796101279033L766.2797044784384,415.1444707514747L767.1944915860622,415.64066210738383L767.8235884430469,416.0633050865581L768.3783653723476,416.5455422429077L768.7992499531101,416.9819444009627L770.4142700861194,419.1909425501217L772.1239991719667,421.5878051687905L774.1502412855516,423.08164792717434L775.3706180362387,423.8413263815455L775.5853402544271,424.1677527589345L775.6123202523086,424.4769111623318L773.731335397475,424.68296677248145L771.8503505426415,424.8890220457397L769.969365687808,425.0950769817282L768.0883808329745,425.30113158108725L763.2231818132714,433.1220169437729L763.0148160250537,435.4091338466824L762.8064502370071,437.6962092453905Z" class="hulls"></path><path d="M906.5378249091955,560.8217751554184L904.5583337843054,560.739032642523L903.1104817863888,560.6250585207599L900.9230979259191,560.18764014302L898.0851548494502,559.5449975748925L895.7491938361345,558.8415952525975L893.9149393237967,557.9885621139401L891.695212382634,556.6925436854508L890.1260193550843,555.6017741573014L885.7834181520884,551.4985004304181L880.7275666284368,547.8405403262441L879.0896820697926,547.9030307115318L877.7093926369234,540.0109991170029L875.8945867026341,537.5571987772419L874.682103132458,529.4279969197087L874.6285715012273,529.1692149212904L877.8073544902691,522.6186697937082L878.9317455949458,520.1986993342434L882.9062469249766,515.6518507450091L886.8621147930135,513.5145260342397L893.7054893560671,497.3791918864299L893.7913650132577,496.6266800448211L893.9466085136628,495.44635405164445L898.0732357530396,495.5228626195021L902.0892311922398,495.59950569631474L908.5232833870577,492.2222815508867L908.8112945180765,492.29867717546585L922.4053531222016,469.1963351924933L922.6214806411081,464.9034278843319L923.7680815034801,462.43311143245955L925.2618423950771,459.0521955791046L926.8953901271307,457.8003687023447L931.6229576768164,459.9587081326026L939.4109615640518,460.1529685961432L941.1057754342,460.93659946233674L948.8844505367633,456.39836975888466L950.3112982121893,453.70189409110753L954.4773789744831,456.4707738262805L960.4641719479769,464.10815055304556L963.7273652260665,463.32293164708244L967.8854065703817,473.2468836525659L972.7278525487382,475.83156160295766L980.8715175807047,472.60553738003364L982.2905853647717,470.87133334240934L982.2985817678891,470.87770405443734L982.7523828686171,471.26386698984425L983.2678489235514,484.24464219210495L986.6671614326951,486.6557702399732L985.8747034093321,487.49166617906303L986.0123588359093,508.9054063560907L987.111844078896,509.832836525733L988.686536871046,517.2257358467032L987.5461607322577,517.4849087192124L980.536726944938,531.9840541983431L979.9106409083215,535.7346561657323L976.7596582400656,537.0248984334903L971.6952698586538,537.7987619745545L967.2278561059284,538.07183416115L963.90557883773,536.4634568241745L953.7908561708064,534.9701094431803L951.0597928172792,535.5294423052837L945.7026401058829,536.7876212735282L941.0698006966668,537.6432952677133L933.713980497665,546.3020992413221L931.4255702705159,547.561546232173L925.8769540348767,552.1642571138946L921.0765167465215,552.5124118036183L916.5948864422971,556.7971450747136L911.9556587297338,559.6674685881007L911.7941856591424,559.7309845198761L909.8153010337192,560.3082846114121L908.1916467288029,560.6686242726719Z" class="hulls"></path><path d="M707.942652236452,321.3042722516402L707.7131397114172,321.291810891169L705.076097287103,319.13395074682194L702.292963349224,318.3088764850836L699.509829411174,317.48379681861843L697.5037270291723,315.5338789756788L693.678116975294,312.7074115485302L691.2349607798496,313.07196851113986L689.1247207648339,313.5026059869124L685.0560509137395,308.6993540076801L682.752698766486,310.60962221161753L681.8801475727523,310.12970617672545L677.0196740033789,306.47142930138216L674.4324040892643,306.8148388151312L671.7303863923989,306.9549022483261L668.9783046781777,306.9835258553212L666.2090059335169,306.6998081436759L665.9606145830367,306.6229091272544L665.276429553127,306.2565677284292L664.6841731478817,305.83430582867004L664.1465025256839,305.263865642366L663.6638751261635,304.63768311738386L663.2350938450872,303.7154185200343L663.0092635345463,302.81061630997283L662.139538943251,299.00604564377863L661.8693020912251,297.6859705661336L661.9253878575291,297.1864756910363L662.9325685120275,293.56941471400205L663.2208050116496,292.62824310240103L663.7138076128867,291.62730561272474L664.4703121407692,290.59567451542534L665.491935213835,289.85638782386377L666.4271469129453,289.41120621612936L667.4506817379915,289.0536947923538L670.251589409967,288.59983621195715L673.0524970821207,288.1459759963909L675.8582802751589,287.65539322984114L678.6591059876955,287.16301249552635L681.4569922694136,286.7059961603518L684.2579025445484,286.23083912536094L687.0588128198542,285.7556802976178L689.8597230951636,285.2805196774716L692.6453971595802,284.82818283910456L695.4462670730973,284.38350841209467L698.251641576353,283.9321283089812L701.0525431703936,283.4801780417474L704.8197302828521,280.2830041929701L708.3148446536143,275.34594425758405L708.3148446536143,275.34594425758405L711.1146221515955,274.6843537420791L713.9046393914068,273.8820689335116L716.6833562671163,273.0073950239748L716.7422499028908,272.9886659071926L718.8431398231078,272.5819759792648L722.223534745317,273.6022762624634L723.9898617903455,271.9783603754913L726.7396118516735,272.68936170193774L729.6057216626505,273.29661128837324L729.8571368601115,273.25555832318787L732.5802439124272,278.5867168702098L734.938790379696,278.26821559658856L737.4349217285562,279.58109136695566L739.2712555677026,280.85573337227106L739.7161557215477,281.23884663353965L741.8270899796662,284.8456378694391L742.0956018864927,284.8125039211882L742.8435901593475,289.9690842117998L743.0982752725249,291.1467186560767L740.9162717511099,294.1110376974102L740.8954916053444,294.1478672619414L738.4186486548497,295.20724841543415L735.9425743215324,295.9817408714298L733.446552163783,296.71962174276996L730.8662593243025,297.5590522938728L728.9250466425801,298.05441237478226L722.3497212650109,305.7659521951864L720.9646810106606,309.44122739536397L720.1383769960848,315.41948210136616L720.145346960071,319.1817863250035L720.1743456954755,319.37886442171293L717.3550461217092,319.8751629659673L716.1647902911827,321.14475334098097L713.2872634827327,320.42998193376116L710.4843881166089,320.90543065583915Z" class="hulls"></path><path d="M829.760305652555,474.7287027209677L828.291474656533,474.2519817715365L826.8226436606856,473.7752590191958L826.3880877191914,473.6342195037578L825.2836497904682,470.4392703858466L823.8441436453213,469.9600819906773L822.4046374999998,469.4808917739283L820.9652455604773,468.99289006330946L819.5257317261057,468.5181192798045L818.3626946122677,468.13453288548044L818.1799183001385,467.37003859874676L818.157491056616,466.19013294999604L818.3208909448731,464.5354522694397L818.9048773781542,464.0076480964053L820.3276160364403,463.2415276397369L821.75035469473,462.4754025265138L823.1730933530198,461.7092727570707L823.5063237174945,461.5298310452199L823.7508369903553,461.62682571938785L826.1571127094685,464.6203766979743L828.6358896778111,462.835300477891L828.6838753263764,462.60559550307516L830.1251343531621,463.27179134247126L831.5663933801225,463.9379836608714L832.4940068621581,464.36675203678897L831.9061295724823,466.6286568978394L831.33467703918,468.82265724906756L831.219348683655,469.3078154863324L830.5918091808198,471.54155182150134L830.0021082444291,473.8018823137245Z" class="hulls"></path><path d="M891.2815532075365,467.78484395626583L890.9996716009446,467.234398115339L890.291604177397,465.0486777629703L889.5221245735811,462.9229040958744L889.1777151590031,461.9714228641824L890.1367934631453,461.75544108840404L891.5970717532946,462.3595010840945L893.0592599186712,462.95107932033716L894.5213238021133,463.5433611374174L895.9833876853882,464.13564017170575L897.445451568834,464.72791642272205L898.1706936966693,465.02170808536175L897.2776065255894,467.0133292000828L896.9686202363664,467.7023740035802L895.4628122181639,467.72421020580805L893.9570041999577,467.7460464043834L892.4511961817589,467.76788259895693Z" class="hulls"></path><path d="M926.9543472871301,450.6329387130245L923.9254880913068,449.2234445852955L920.982872275923,450.43500641855644L918.8219668893071,449.2065258055227L918.0059442273014,448.27591492758074L916.0245341931804,444.04284050577553L913.947426021492,439.95026403074735L911.6983537480191,436.0350882846542L911.6874806316118,436.0168949857907L911.8184357721802,435.9664401404443L910.6219575754876,421.3330878977431L909.9602492042577,421.1786492259562L911.1973404192177,419.4679148727737L913.2421451455994,420.1054120400804L915.8234186276386,420.5610769705381L921.1521009640092,405.98540629138006L921.1521009640092,405.98540629138006L921.523947483438,405.74075617821654L923.9714156772898,408.83053134789225L927.66336007071,412.77286241709953L928.7134214550097,412.15528329896915L929.1434304512986,415.3602027181623L933.3044166481159,421.6137275875226L936.2766683412992,423.2648627266899L939.2132029085951,424.8406986263726L939.4556885839411,425.00033413078927L937.2709709627889,428.99259096405876L935.3556011119435,433.32050249454915L933.4225476139181,437.6150001982023L932.4265717257258,439.8890769214777L929.4692445016262,442.8946528141387L927.8767527318087,448.45572336929035Z" class="hulls"></path><path d="M773.9487869582335,461.9309489903244L774.1680796085275,459.4448810839822L771.6156072562371,453.95580260617135L771.6259591263952,453.84969898319105L766.3948260683028,446.5885459519486L764.3801598672144,446.4004508387152L763.9809472720735,446.36317915283144L763.0406625745272,444.6432400210033L763.435194601705,440.40801789498073L763.820276517119,436.16390155028785L763.634333656224,430.5239816686517L762.873062413546,429.2205799736839L763.1647923767669,428.90235721664794L764.048108007868,428.04300989249896L765.9659758767375,427.4421912370308L768.6058903525591,427.1512040508387L771.245804828377,426.86021619277017L773.8857193041986,426.56922766282514L776.0980720149419,426.3253672518331L778.4778709413004,428.74791608416126L781.0587878461192,429.7027867026336L784.5231726433376,429.9370906796248L784.5927775452001,429.6951547436038L784.968895494254,429.89207725424785L784.317666609033,432.08238194850856L783.7689463768111,433.93422079310403L789.3368228663348,446.61647328332765L790.3818678924945,446.4157661518111L790.7722535001267,446.34079018526245L791.1865586952335,447.75121708525694L788.9799189965597,448.0850631878129L784.6882398495181,451.4801269045274L783.5828702518193,453.2116500501579L781.7019854102873,456.157936260468L779.8177789691217,459.0956542762433L778.4002039745901,461.30198824146646L776.7691695232897,461.5431488297618L774.1325421490947,461.9056828468165Z" class="hulls"></path><path d="M750.0411399407567,396.6675763080566L748.0548810828259,396.585479408197L746.068271636068,396.5100692217238L744.0817346117474,396.4390932682145L743.8043922700417,396.4291842439852L740.0147977212764,396.56837314990116L740.0147264380175,396.57213339587906L738.027651748962,396.5276602224767L737.417319025204,396.5140002231492L735.4306184577763,396.436296910033L734.2847923997688,396.3964333534095L732.6368383509252,392.40395013471425L730.9622958707441,392.3735938743048L730.538244278523,392.3659066266264L730.4422023292427,392.1652647459996L730.7672311238275,388.9063750265632L730.7256373010314,388.25323186905007L731.4880579726996,385.23665243071446L732.2336030121951,382.2087739913841L732.4992624518491,381.1298350194702L734.4558667929123,381.0179887457489L734.4558667929123,381.0179887457489L738.2521343138105,386.05915541990544L740.7246204519506,384.87754876138933L742.1598160329995,384.9576804233948L746.7594365509431,377.2637764113024L746.7594365509431,377.2637764113024L747.8289620978685,376.852153527303L748.148897370862,377.68610929454735L748.4114524113502,378.9063085389207L749.0740791748358,381.98594716665684L749.7367059383178,385.0655105242913L750.3978930828489,388.138308221809L749.2528330493296,391.9676343660103L749.8816536974846,394.91479566696216L750.2328220870404,396.3934926301008Z" class="hulls"></path><path d="M926.74908038789,379.6603881546762L925.0205012745319,377.68832028709585L922.3316758121837,375.5217324244877L917.0107630493076,375.198318812676L916.8334090927638,375.09952891472494L914.3989750561668,373.7434899320215L907.7907323378058,375.1208075977047L907.5353248359897,375.2448571820423L903.450073308406,377.36134255473735L902.7102001975036,377.42554933260544L900.8561999056365,377.5864408110792L899.9744686914128,377.22824201615003L899.9716389447603,377.22283764055464L898.2325408735451,373.885946768758L897.6756317430481,372.8173598305293L896.3770079071837,370.01210912282113L898.8841929107039,369.03397591697285L900.4758454373805,368.41301732562715L903.9338669587523,366.0721469705604L906.1856443616671,362.26259521435713L907.6448038756898,359.84085211860656L908.8047286946712,359.4719930218271L909.2217741898748,360.83162766325404L914.7919044085793,361.0080852840765L916.5408229191817,361.6999810675334L920.0984362811469,361.0584939237451L922.2428698742369,360.5609485800378L924.8596827559923,359.95380048369407L925.678779193091,359.76375463856675L925.9945448722356,361.4363298281096L928.313280009952,369.8614278270252L930.3908143399094,371.28858174003835L931.8064546123569,372.2610409125773L931.2184432651629,373.8769981948717L930.0352606332817,376.76933778161765L929.9147911842447,376.97215217787016L929.1353725925183,377.7888902666309Z" class="hulls"></path><path d="M986.4275372944649,398.7250250750367L984.9074374460943,395.0792240912997L983.3846377356931,391.4254094111384L981.8479211133126,387.9647158388252L979.9284497954468,384.565710167677L979.4488627167193,383.8199820223963L980.4998845878217,382.976455811091L981.5921155268516,382.3174639909121L983.3843817869965,365.1494806109986L982.1781421482774,363.25219275233394L980.9719025097329,361.35487632159493L980.7676868696035,361.0336589710787L983.0441615017371,358.6656061733811L984.0450124100826,357.57658535800874L984.2045448536192,357.59733925976616L984.4903936850533,357.7356268050644L986.3946335113942,360.86765866285714L986.4332210911234,360.9311254565546L988.3137533963927,364.1015276781545L990.1936037358973,367.2729282769724L992.0787976344363,370.4360578787746L993.974378125582,373.58186611853307L994.8836935937143,375.0908915937616L996.7699687972054,378.25173322514456L997.844679679285,380.0525966441346L998.0742394540466,385.6734591390705L1000.0826411260023,388.32004321068234L1000.3899401609342,388.64616833896434L999.0729944656086,389.0965710098535L993.5754857645006,395.8273474063317L993.5754857645006,395.8273474063317L993.5754857645006,395.8273474063317L991.5021346131689,396.68350428664417L988.8823253187365,397.713460377563Z" class="hulls"></path><path d="M853.8836315778863,443.25199039936706L852.7463137186314,443.0399315960094L852.3910903434917,442.92379944569257L852.0321225983134,442.8056534524367L850.6247576989226,442.15632571261085L850.5468146677267,442.1300765595224L849.6712822327645,440.89665249505197L849.233776551664,438.60566684859805L849.0719887681917,437.77076030948956L848.7312914104477,435.43510316811444L848.6931745447982,435.2273371024494L848.3894761598931,432.8780423356948L848.1977991152053,431.5656380870496L848.3027209038773,431.528787612071L849.3603686473107,431.25108337147685L850.8085154643195,430.92815488314955L851.3854903371794,430.79402171283436L851.6279665535476,430.74064577466925L852.5648912159922,431.9873449620645L854.5985434038193,432.49016792108887L856.0647696174092,432.82822184490215L857.7623477471825,432.7028369206382L858.9465686288386,432.5754380459839L860.389480601807,432.4202089241444L861.8323925749501,432.26497961118L862.5815457442513,432.1843851998856L862.6528325324762,433.02977498827386L865.5149793557393,435.4677394787868L866.9131839305082,435.32297768542776L868.3113885052735,435.17821572614776L869.7095930800424,435.0334536002629L870.0422511887518,434.99901205270726L870.7103798396784,437.1345639314095L871.3785084907831,439.2700796246354L872.0466371417133,441.4055591342185L872.1759954650151,441.8190113265882L871.7445286651855,441.9320330229966L870.2854513226594,442.06817158190825L868.8263739799586,442.2043099937873L867.3672966374288,442.34044825860474L865.908219294728,442.4765863763605L864.4491419520273,442.6127243467927L862.9900646094975,442.7488621704688L861.5470439796627,442.88350169315527L860.6828295896848,441.7383947416092L859.8186151998889,440.59327738621505L854.6755806766778,440.8690778614109L854.3150821519084,441.9357253785711L853.9688213801965,442.9920953061228Z" class="hulls"></path><path d="M896.2343083514825,494.92394052405143L893.8966752083761,494.86714819846384L893.6081688846934,494.8601389935502L891.3326296610721,493.679892042157L889.0162487410817,493.2704405704717L887.4561206459657,492.98659129264706L884.726319017831,490.27785106287047L880.3915557757427,492.63609334758075L879.6922503815185,492.4682061534113L877.3867138407331,491.9146980987134L875.0891222640275,491.3630950357474L872.6081818813691,491.5014892261679L870.235150960496,491.6725470206293L867.932648551574,492.0046078810701L867.1776422082148,492.11349272582447L867.9612619591207,488.49628974020015L868.1941959679316,487.2440856407047L868.9826729083616,483.62965957520646L869.5750700690005,480.64727563329507L870.3551937067205,477.02743523477693L871.1353173446223,473.40749088447774L871.2224272387975,473.00327546638437L873.5090378272798,473.5364895131206L875.7956484157621,474.0697013046156L878.073772807631,474.60093196747766L880.6974582887888,475.41789172639255L883.0625520892718,475.23223548795795L885.388374777649,474.85579648110433L887.5881951738666,474.57244302619074L889.8729943441103,472.5478623899835L890.7367954109686,472.6507261407678L891.3411248792872,472.7801792886312L893.6566953868823,473.30952457773674L894.2754492300301,473.4509728988487L894.5378278990684,473.5300010498613L895.1737418560733,473.8239956755133L895.9128323691912,479.19449036818696L896.7202201630789,479.45354150238563L896.8804241798134,480.5556267525826L896.0091988153254,481.9345876827865L897.6254532521598,490.3599501388526L898.2634001030565,490.57460633556184L897.8424503869537,491.53932354878634L896.4042240893068,494.5663273447717Z" class="hulls"></path><path d="M822.0222140189653,414.3792290473357L821.2300848706109,414.31261150486534L820.4993707510766,414.17101769814326L819.7633078312865,413.9727451226354L819.1015967328058,413.72006658342434L819.3968636038335,412.2420514679543L821.0468144278457,412.88075497865793L823.5807404348561,412.9137856875168L827.3309128970504,404.91635313838196L827.9531282813768,403.0745407961367L829.5133323037262,401.7751794965152L831.6349352572579,399.99885971745243L833.7565382109715,398.222514897614L834.312170270794,398.24252411391353L839.0663869213895,392.7175132809498L839.5763325972875,392.38457234004454L842.0378056411755,385.6040840657661L842.459075395338,383.0103370430006L842.8340976200598,382.3357692701393L843.1399979580747,381.9906780599413L843.6084369326054,381.5842857409152L844.0570286899456,381.2824329001742L844.5258397515681,381.0032221243164L844.673199489087,381.03922821082233L845.9370139608582,384.0640292379685L848.7695649371963,387.2947435784881L850.6047311201801,387.2680512377701L852.1055431672612,391.52143570946646L854.172883622814,392.84080757824995L855.1555531909471,393.7295422756142L856.5637383778085,395.7703418758465L858.2394271675585,398.65450674734893L858.7241452488233,399.32311989001755L856.1275634832127,400.0347211348417L853.9323498825106,401.41867421120696L851.852217926491,403.1873496252665L849.8876592398592,403.194277372284L846.6658402134162,406.8478298989794L845.4808031480861,406.8395234336349L841.6085613701507,409.2233765371493L840.6011207040065,412.03085726563586L840.2176129031395,413.0995794619521L837.8069170066192,412.8891128442774L835.3956358008472,412.6986581282981L833.9863818202502,412.5461719840532L829.6064301541337,411.4693876943493L827.8838755000434,412.85764726901834L825.6460848796924,413.76986579436925L823.263605747019,414.3020159745065L823.1121381840749,414.32359788961185Z" class="hulls"></path><path d="M717.2610968382578,457.6511093654699L716.0619228901269,456.20598712802166L715.1317296877169,454.0098151109123L715.7913043525696,446.4878615294583L713.7491916888721,438.5994337572047L713.076874971528,438.08164257941826L716.0397788522787,433.1106648674031L716.2605643643656,432.7402366785682L717.8536859329288,432.53596994827967L722.0817618735782,432.1481765294884L722.6843696475444,432.0898120869242L727.0107690573568,435.50546970604046L731.0566376663519,435.27994026055967L735.1935168308228,438.15157002117485L739.378966117456,438.2437553732598L742.716503674761,438.2523202095763L747.6777551984451,441.2328185144579L751.8660209548325,441.6550954094564L756.0691696973154,442.062544361921L760.0440563412412,442.33674560507643L761.0656772783768,444.43514194393356L760.9235461535463,446.08491908950964L760.6773550714206,448.6576020088396L756.5907908017653,448.64646425684623L752.4842981604306,448.8713681414956L746.5760195525327,452.69299219333334L744.1636644899991,453.3717284113227L740.0879730212,452.9980488317524L736.6461350660102,457.21845551396837L732.952657177615,456.03675367467804L728.1774589906781,457.38686560388305L723.9429490927105,457.4636538370396L719.7089389317262,457.58243659330765Z" class="hulls"></path><path d="M813.9863975476183,420.8170143115858L813.023274197014,420.3980095509032L811.6214326636145,417.2430483320204L810.3741430550726,417.05572299716005L808.9449008514457,413.3316887983674L807.1141464412322,412.68706790561555L806.8410073752639,412.5908935280604L806.9739827621961,410.91293604641396L807.6168110869476,408.860209739767L808.3716940721824,407.73896935611265L809.8752237464796,407.9040331885626L811.9105600876719,408.6317709152354L812.5661077927434,408.70747351624595L814.4288400356236,410.1916996722284L816.2081276258505,411.9609702865855L818.0970065174515,413.41456813082914L819.9263233882702,415.2632401915471L821.8760201741279,416.3896374799515L823.8257169599892,417.51602470052603L825.7754137458469,418.6424018535472L827.1341193833578,419.4273461551784L825.0645897361901,419.646089207803L822.9950600891971,419.8648318807536L820.9255304420294,420.0835741740302L818.8560007950291,420.3023160879093L816.7864711478651,420.5210576218087L814.7169415008648,420.7397987760487Z" class="hulls"></path><path d="M1073.8839427540697,551.2147656732413L1072.9153955191468,549.5809399897262L1071.802497366054,548.2798083077942L1070.6895992127902,546.9786632003379L1069.747815696126,545.8775663169072L1069.0560296360163,543.9409941280755L1068.3246117250274,542.0418561312108L1067.5954778346277,540.14209196929L1067.5452801857828,540.0113005420717L1067.0288180040807,538.5093413438153L1066.45582550552,536.7880288671004L1066.2244711224812,535.4290515769826L1066.0862817340603,533.6698541161604L1066.072254904393,533.440519869022L1066.1693397020354,533.1943496396561L1066.3184643754903,532.8725807648007L1067.2196723483794,531.18002819721L1068.069438385137,529.4216029993258L1068.436279895257,528.6785377121705L1069.7806765554415,528.7434693521354L1071.115926278544,528.8201215310255L1072.4548087493313,528.9236937644164L1074.0517618833583,527.3177352423954L1074.0534491760518,527.2502098464756L1075.420477124626,527.1770691903512L1076.6317336332177,527.6182901544962L1077.5130334006572,527.003569948487L1078.879918100116,526.9199304506037L1079.6909070658803,526.8703061146371L1079.8256442073543,527.0501022767276L1080.831524343721,528.5720623756497L1081.8450877990654,530.080084055604L1082.858651254588,531.5880876994925L1083.872214710107,533.0960733079264L1084.8857781654515,534.6040408814151L1085.2125567618714,535.0902143198618L1086.2045658625939,536.6366076668783L1087.2108809920865,538.1574693597795L1087.2454392436157,538.2096975247696L1086.0127301959292,539.0364731142472L1084.7734116376778,539.8734821323014L1083.543870988462,540.7303981500008L1082.3143303392426,541.5873083441984L1081.0847896900232,542.4442127153889L1079.4089024926398,545.9767388536711L1079.3895174876816,547.3211943750066L1079.3885480986537,547.3884264021908L1078.119117861941,548.2160851315421L1077.1750919052356,549.060949745035L1075.9045057924595,549.8924596008292L1074.633919679858,550.7239639735781Z" class="hulls"></path><path d="M910.4908635013016,410.0014277510636L909.4057302176916,408.7679719903681L908.3205969339069,407.5345041566179L907.4189603315426,406.50960728044447L906.9533636846936,405.9797571058007L905.966015252212,404.53012840070005L904.8635097869446,403.33070036399295L903.7815851953455,402.0879043804889L903.6657113301771,401.95121395109163L904.3631086302848,401.4140790348465L904.6565606465192,397.39279811382585L904.5182780299438,397.1560633024201L905.7925527053303,396.63528762244096L907.0610403490537,396.27382767916424L908.2742378391777,396.1286651952396L909.5135526982049,396.2252795029199L911.3036661863443,394.4962963920407L911.7184197174429,393.4986782862252L911.8345378360282,393.4547568626149L913.0882534876982,394.1178909828741L914.236971699047,394.6410462176718L915.7009231147094,395.0312905780884L917.0070886303256,395.20600874001684L917.2579515075231,395.23956517993065L918.5960047826775,395.95925820840057L919.1346355796086,395.8797143180709L919.4919401293337,396.0212057842L919.9398527272278,396.2668319748336L921.1644334008124,397.0741057525156L921.8637082418318,397.535082651375L922.6250474745066,398.0638863628119L922.1971427054596,398.62474332719285L923.0786487147889,403.1753105050011L923.4961294785244,403.7784446277801L923.103710220752,404.32399070780957L922.4723478672386,404.97438644494105L921.8450831197188,405.3765468598285L921.2774375231929,404.484304589816L918.6739844930125,403.59727229649434L917.3339826811425,404.6238355279638L916.1657075020848,405.53478771611117L914.9974323230272,406.4457333187311L913.8291571437912,407.3566723361437L912.6570205176613,408.2722266884084L911.496097213967,409.1989721581922Z" class="hulls"></path><path d="M809.6521074789525,341.6772257602279L808.6389833905232,340.4561282240029L809.931945151573,339.34835516479507L810.9085526150811,333.9981051918003L810.7979008535767,333.8661441404256L812.3618260967851,332.5311874762556L813.3117260112776,331.72035203065025L813.9726114744262,331.1562333683105L815.546090305259,329.8516249092936L816.0833023963023,329.3892088877037L817.2408774950891,330.70535454014316L819.9376402677226,330.8396004493552L822.1246588117574,331.4450221116276L823.4862126890766,330.166146870848L824.5328769800544,329.1136720611248L825.9151043547936,330.39940389625554L825.1054662403585,331.1852447254496L825.5354957880736,336.88075745952665L825.7934948041548,337.15966207133897L824.7635879450208,337.62257104473247L823.0408139512147,338.2311496413604L821.7087752185435,338.7016970221157L820.6526057759729,337.5002797458874L817.6624837569325,337.31640266941395L816.0939058827207,338.3131891582598L814.5112744719845,339.2279500388977L812.8554186992515,340.0784515336418L811.183901114644,340.89953758927004Z" class="hulls"></path></g><g><line stroke-width="1.2222222222222223" x1="841.9687920622782" y1="483.96967702609254" x2="933.9546577803048" y2="510.0820789949066"></line><line stroke-width="1" x1="933.9546577803048" y1="510.0820789949066" x2="878.2094690104968" y2="440.85646594141144"></line><line stroke-width="1.0555555555555556" x1="858.137197870743" y1="471.64375462866155" x2="858.137197870743" y2="471.64375462866155"></line><line stroke-width="1" x1="913.1689299811369" y1="401.1009253999364" x2="924.0754989165871" y2="342.540004393406"></line><line stroke-width="1.0555555555555556" x1="933.9546577803048" y1="510.0820789949066" x2="1052.2423828332903" y2="527.7834699070954"></line><line stroke-width="1" x1="933.9546577803048" y1="510.0820789949066" x2="531.1703779133932" y2="367.9883049112541"></line><line stroke-width="1" x1="732.5386315580727" y1="445.7479054538271" x2="732.5386315580727" y2="445.7479054538271"></line><line stroke-width="1.1111111111111112" x1="933.9546577803048" y1="510.0820789949066" x2="913.1689299811369" y2="401.1009253999364"></line><line stroke-width="1" x1="887.6309412787414" y1="408.03506281641603" x2="933.9546577803048" y2="510.0820789949066"></line><line stroke-width="1.0555555555555556" x1="924.0754989165871" y1="342.540004393406" x2="924.0754989165871" y2="342.540004393406"></line><line stroke-width="1" x1="933.9546577803048" y1="510.0820789949066" x2="817.6401655956179" y2="334.95082111989905"></line><line stroke-width="1" x1="841.9687920622782" y1="483.96967702609254" x2="859.1699281320834" y2="437.4588702804467"></line><line stroke-width="1" x1="775.4997781936327" y1="442.0186366294365" x2="531.1703779133932" y2="367.9883049112541"></line><line stroke-width="1.1666666666666667" x1="933.9546577803048" y1="510.0820789949066" x2="883.6597472244212" y2="388.5657739708695"></line><line stroke-width="1.0555555555555556" x1="883.6597472244212" y1="388.5657739708695" x2="933.9546577803048" y2="510.0820789949066"></line><line stroke-width="1" x1="914.9608371890063" y1="369.32226769824047" x2="914.9608371890063" y2="369.32226769824047"></line><line stroke-width="1" x1="933.9546577803048" y1="510.0820789949066" x2="904.8085101090146" y2="387.904902605238"></line><line stroke-width="1" x1="841.2184537273206" y1="400.193998351373" x2="841.2184537273206" y2="400.193998351373"></line><line stroke-width="1" x1="883.329796507096" y1="483.6633809727209" x2="883.329796507096" y2="483.6633809727209"></line><line stroke-width="1.0555555555555556" x1="933.9546577803048" y1="510.0820789949066" x2="841.9687920622782" y2="483.96967702609254"></line><line stroke-width="1.1111111111111112" x1="933.9546577803048" y1="510.0820789949066" x2="887.6309412787414" y2="408.03506281641603"></line><line stroke-width="1.0555555555555556" x1="952.5314126270896" y1="432.7557170657383" x2="952.5314126270896" y2="432.7557170657383"></line><line stroke-width="1.2222222222222223" x1="933.9546577803048" y1="510.0820789949066" x2="923.4594799408478" y2="429.693115105998"></line><line stroke-width="1" x1="887.9310007669992" y1="426.73222140299913" x2="878.2094690104968" y2="440.85646594141144"></line><line stroke-width="1.0555555555555556" x1="933.9546577803048" y1="510.0820789949066" x2="816.6548846571277" y2="520.2379945743742"></line><line stroke-width="1" x1="775.4997781936327" y1="442.0186366294365" x2="732.5386315580727" y2="445.7479054538271"></line><line stroke-width="1.1666666666666667" x1="933.9546577803048" y1="510.0820789949066" x2="761.9370117130311" y2="424.3352512872807"></line><line stroke-width="1.0555555555555556" x1="933.9546577803048" y1="510.0820789949066" x2="704.4591891573909" y2="295.9718068710936"></line><line stroke-width="1" x1="924.0754989165871" y1="342.540004393406" x2="933.9546577803048" y2="510.0820789949066"></line><line stroke-width="1.6666666666666665" x1="933.9546577803048" y1="510.0820789949066" x2="732.5386315580727" y2="445.7479054538271"></line><line stroke-width="1" x1="859.1699281320834" y1="437.4588702804467" x2="841.9687920622782" y2="483.96967702609254"></line><line stroke-width="1" x1="933.9546577803048" y1="510.0820789949066" x2="914.9608371890063" y2="369.32226769824047"></line><line stroke-width="1.1111111111111112" x1="933.9546577803048" y1="510.0820789949066" x2="841.2184537273206" y2="400.193998351373"></line><line stroke-width="1" x1="923.4594799408478" y1="429.693115105998" x2="933.9546577803048" y2="510.0820789949066"></line><line stroke-width="1.2222222222222223" x1="933.9546577803048" y1="510.0820789949066" x2="883.329796507096" y2="483.6633809727209"></line><line stroke-width="1" x1="732.5386315580727" y1="445.7479054538271" x2="741.1701735914103" y2="389.0013641521655"></line><line stroke-width="1.0555555555555556" x1="933.9546577803048" y1="510.0820789949066" x2="952.5314126270896" y2="432.7557170657383"></line><line stroke-width="1" x1="913.1689299811369" y1="401.1009253999364" x2="913.1689299811369" y2="401.1009253999364"></line><line stroke-width="1.1111111111111112" x1="741.1701735914103" y1="389.0013641521655" x2="933.9546577803048" y2="510.0820789949066"></line><line stroke-width="1.0555555555555556" x1="933.9546577803048" y1="510.0820789949066" x2="858.137197870743" y2="471.64375462866155"></line><line stroke-width="1" x1="817.6401655956179" y1="334.95082111989905" x2="817.6401655956179" y2="334.95082111989905"></line><line stroke-width="1.1111111111111112" x1="883.329796507096" y1="483.6633809727209" x2="933.9546577803048" y2="510.0820789949066"></line><line stroke-width="1.0555555555555556" x1="841.2184537273206" y1="400.193998351373" x2="933.9546577803048" y2="510.0820789949066"></line><line stroke-width="1" x1="924.0754989165871" y1="342.540004393406" x2="913.1689299811369" y2="401.1009253999364"></line><line stroke-width="1.0555555555555556" x1="933.9546577803048" y1="510.0820789949066" x2="924.0754989165871" y2="342.540004393406"></line><line stroke-width="1" x1="859.1699281320834" y1="437.4588702804467" x2="933.9546577803048" y2="510.0820789949066"></line><line stroke-width="1" x1="933.9546577803048" y1="510.0820789949066" x2="920.9445962168684" y2="322.22002866095863"></line><line stroke-width="1" x1="933.9546577803048" y1="510.0820789949066" x2="979.0509862484432" y2="411.9228426124755"></line><line stroke-width="1" x1="741.1701735914103" y1="389.0013641521655" x2="741.1701735914103" y2="389.0013641521655"></line><line stroke-width="1.3888888888888888" x1="732.5386315580727" y1="445.7479054538271" x2="933.9546577803048" y2="510.0820789949066"></line><line stroke-width="1.0555555555555556" x1="1052.2423828332903" y1="527.7834699070954" x2="1052.2423828332903" y2="527.7834699070954"></line><line stroke-width="1.0555555555555556" x1="878.2094690104968" y1="440.85646594141144" x2="878.2094690104968" y2="440.85646594141144"></line><line stroke-width="1" x1="933.9546577803048" y1="510.0820789949066" x2="894.5472611776531" y2="454.3551854121033"></line><line stroke-width="1.1666666666666667" x1="933.9546577803048" y1="510.0820789949066" x2="775.4997781936327" y2="442.0186366294365"></line><line stroke-width="1" x1="841.2184537273206" y1="400.193998351373" x2="924.0754989165871" y2="342.540004393406"></line><line stroke-width="10" x1="933.9546577803048" y1="510.0820789949066" x2="933.9546577803048" y2="510.0820789949066"></line><line stroke-width="1.1111111111111112" x1="883.6597472244212" y1="388.5657739708695" x2="883.6597472244212" y2="388.5657739708695"></line><line stroke-width="1" x1="775.4997781936327" y1="442.0186366294365" x2="741.1701735914103" y2="389.0013641521655"></line><line stroke-width="1.0555555555555556" x1="775.4997781936327" y1="442.0186366294365" x2="775.4997781936327" y2="442.0186366294365"></line><line stroke-width="1" x1="979.0509862484432" y1="411.9228426124755" x2="913.1689299811369" y2="401.1009253999364"></line><line stroke-width="1.2777777777777777" x1="775.4997781936327" y1="442.0186366294365" x2="933.9546577803048" y2="510.0820789949066"></line><line stroke-width="1.2222222222222223" x1="887.6309412787414" y1="408.03506281641603" x2="887.6309412787414" y2="408.03506281641603"></line><line stroke-width="1" x1="933.9546577803048" y1="510.0820789949066" x2="988.8800930712459" y2="380.79752388787165"></line></g></g><g><circle r="2" cx="920.9445962168684" cy="322.22002866095863"></circle><circle r="2" cx="725.3896235775392" cy="359.42197235068306"></circle><circle r="2" cx="816.6548846571277" cy="520.2379945743742"></circle><circle r="2" cx="878.2094690104968" cy="440.85646594141144"></circle><circle r="2" cx="858.137197870743" cy="471.64375462866155"></circle><circle r="2" cx="887.9310007669992" cy="426.73222140299913"></circle><circle r="2" cx="924.0754989165871" cy="342.540004393406"></circle><circle r="2" cx="952.5314126270896" cy="432.7557170657383"></circle><circle r="2" cx="531.1703779133932" cy="367.9883049112541"></circle><circle r="2" cx="894.5472611776531" cy="454.3551854121033"></circle><circle r="2" cx="841.9687920622782" cy="483.96967702609254"></circle><circle r="2" cx="849.0703591413512" cy="450.3812784317561"></circle><circle r="2" cx="1052.2423828332903" cy="527.7834699070954"></circle><circle r="2" cx="887.6309412787414" cy="408.03506281641603"></circle><circle r="2" cx="979.0509862484432" cy="411.9228426124755"></circle><circle r="2" cx="883.6597472244212" cy="388.5657739708695"></circle><circle r="2" cx="795.5817575922592" cy="386.40263564551424"></circle><circle r="2" cx="904.8085101090146" cy="387.904902605238"></circle><circle r="2" cx="761.9370117130311" cy="424.3352512872807"></circle><circle r="2" cx="933.9546577803048" cy="510.0820789949066"></circle><circle r="2" cx="704.4591891573909" cy="295.9718068710936"></circle><circle r="2" cx="825.7873105544095" cy="467.3474104467896"></circle><circle r="2" cx="893.4369774007246" cy="465.2244108723389"></circle><circle r="2" cx="923.4594799408478" cy="429.693115105998"></circle><circle r="2" cx="775.4997781936327" cy="442.0186366294365"></circle><circle r="2" cx="741.1701735914103" cy="389.0013641521655"></circle><circle r="2" cx="914.9608371890063" cy="369.32226769824047"></circle><circle r="2" cx="988.8800930712459" cy="380.79752388787165"></circle><circle r="2" cx="859.1699281320834" cy="437.4588702804467"></circle><circle r="2" cx="883.329796507096" cy="483.6633809727209"></circle><circle r="2" cx="841.2184537273206" cy="400.193998351373"></circle><circle r="2" cx="732.5386315580727" cy="445.7479054538271"></circle><circle r="2" cx="814.9424310957365" cy="415.0807771197142"></circle><circle r="2" cx="1075.5315264436904" cy="537.606343069725"></circle><circle r="2" cx="913.1689299811369" cy="401.1009253999364"></circle><circle r="2" cx="817.6401655956179" cy="334.95082111989905"></circle></g><rect class="overlay" width="1000" height="1000"></rect></g></svg>