<svg width="1000" height="1000"><g><defs></defs><g></g><g><path transform="translate(3.269721822864085 47.213969178526895)" id="id227" title="id:227 , i:0" d="M522.3162252215843,458.0640413448855L519.0847297834625,447.11821096244967L515.9878313129666,447.24346853763564L516.2946013583278,444.54092524471343L520.9454751264202,444.3175688398769L525.4418310875335,444.75888428179314L529.8580366072129,445.3665440228069L535.7621173642037,440.97350835762336L537.9363535103621,436.46768478502054L542.6141132200282,438.1305754153291L547.2918729300363,439.79345506968093L549.3750142185309,440.5339797986089L546.3452374538974,446.61427554363036L544.4420228453091,451.1489560061891L541.0924533616344,456.773215214489L540.7281933530103,457.45375403939397L536.0977374259819,456.7998824896931L531.1053413938353,456.7833972458902L526.3493141919025,457.4763890275499Z" class="hulls" style="stroke: rgb(0, 0, 0); fill: transparent;"></path><path transform="translate(101.95601263664139 -8.827439555723686)" id="id215" title="id:215 , i:1" d="M291.1340326383506,891.1695897305035L290.78178607792506,890.0746481101087L290.5285522177146,888.3028915789328L295.8366037852902,881.3152763686667L301.0561676355719,874.2510542409145L305.74420422434923,853.6668799606268L305.67119558155537,852.0499090242374L312.7317623928975,843.54438683216L312.593983217419,840.5630840695521L314.2996802853377,837.8472343579342L320.54560536850477,832.4273128838395L324.3576686128872,829.1193255574908L333.2497920745009,829.6680730918888L338.51298299506743,823.4600070158485L344.72611055953166,816.6627689734742L349.2478624145806,809.8586020133807L351.5648225992263,811.1224419135833L347.6840505523214,816.665419705445L344.3211815438626,839.3769971131405L348.70038382948405,849.0245446309273L349.29045745667827,849.417822842137L349.13698244377883,850.9944560423901L343.44551353644056,848.7572377916367L336.09312440585927,847.6304068930913L327.25492543547443,849.1972143685853L317.47822299107065,855.497254832706L311.37426975520793,864.2707331043785L306.6537884224017,871.0876671853766L301.3652443426254,877.9644014564983L296.0230407105046,884.89633149156Z" class="hulls" style="stroke: rgb(0, 0, 0); fill: transparent;"></path><path transform="translate(36.69496949912718 45.56862781563541)" id="id199" title="id:199 , i:2" d="M456.45399911751156,706.1975425669516L452.5224924851791,704.6375429366599L448.67291787786235,705.0725808221323L444.82612141758,705.5215866631479L443.3682521603696,705.6917518940463L441.6178930663518,700.0152827673301L439.86753397266875,694.3386858095473L438.0537016879316,688.7077178193722L436.22297451167105,683.1006512467284L434.37592937747104,677.5066868084832L433.1838855089518,673.8963945443102L431.5786182459633,668.6432315752027L434.7950763901026,667.5859317375871L435.3740381569514,667.5147996496817L439.2456720557457,667.3039447894844L440.66542755625414,667.2266227787477L444.5564700716859,667.6404983944085L448.42209197826014,667.2631581011519L451.41923425433924,666.9312450411962L455.1535439643849,671.793229566043L458.6803122938654,671.4160626610101L458.73250884037407,671.4104805469105L459.34359567605134,677.6960231995326L460.00793465499737,683.9649921746168L460.6445160718213,690.2409991537861L460.97354446379177,692.0389445173205L461.57666665592114,698.3255774182326L462.1797888480578,704.6120535368682L462.2423418125254,705.2640479620313L458.3871128302635,705.8857868381892Z" class="hulls" style="stroke: rgb(0, 0, 0); fill: transparent;"></path><path transform="translate(3.2394770389801124 1.6423666705668438)" id="id195" title="id:195 , i:3" d="M405.5810469871576,778.5354295664292L400.5184104606087,776.8837981130346L394.45288471938693,774.847196198767L392.9396081514278,774.3704189118871L390.119680867203,772.9633156965137L378.41389298893773,767.4865549881943L376.93733445009275,768.9608845158073L380.535078261797,761.7602859340841L383.9467004633116,751.6372964882175L381.77151604695246,739.3972728261724L381.2549184250747,737.2523448627326L385.88093631247466,730.9910129145137L391.6278360809738,729.6893755920173L396.6992903763821,727.3511681573L405.3939435287393,721.3838523394952L409.4935059735799,718.4207624721166L413.6975236915896,715.172180491616L419.6118425181994,718.1973840236315L424.7712867047085,721.2502177294518L431.59481912512274,723.9278851866256L437.68946226581465,725.2880160665081L438.11538208342245,725.3830675747886L436.1100270140523,734.9910328977276L436.03169518475624,737.2689145604963L435.77371963707265,738.5167515886424L433.4502203456577,747.9597280283924L431.1643413965721,758.7974180661258L429.92209525165526,765.3759776029619L424.62092064470926,763.710577432299L415.7305721246521,771.5543767630588L415.6613065676793,773.2146107352746L409.76724999614817,776.3257751233468Z" class="hulls" style="stroke: rgb(0, 0, 0); fill: transparent;"></path><path transform="translate(32.94921109684947 51.01489771468914)" id="id208" title="id:208 , i:4" d="M476.634779045562,666.4701042005618L470.2878420779525,663.9432018707739L465.91669804589765,664.2741900145193L457.5435645687612,660.0935796517297L451.9203935956466,660.6052832620626L445.16310758243344,661.2782674808695L441.4356783543917,661.6620857293892L441.0339244605566,657.7244585275766L440.56332115313853,652.7205349504657L446.8571877206996,652.0059772641107L453.15321025020967,651.4222920914763L456.67855786283326,651.117425653385L465.7167372791955,650.4286340041726L472.19792504025827,650.3315813584195L478.3813418313439,648.2827465056616L479.74862404105806,647.635794670583L485.04477715772373,655.2240980755596L490.43097922256857,658.8864893280552L492.98051310065784,660.5895002147008L491.9506094909739,664.6314925377374L486.83604922545055,665.3229025303153L480.5415986358057,666.0307565915573Z" class="hulls" style="stroke: rgb(0, 0, 0); fill: transparent;"></path><path transform="translate(2.6334051593585173 44.66029646375682)" id="id219" title="id:219 , i:5" d="M532.2406242148863,522.8178575512138L532.0288576142193,518.0381151478214L526.5885780315148,511.4684780201933L522.9804463517212,509.2813587882265L522.6010061408524,509.05135472034453L522.3756233938257,498.04176113943686L518.7469589887551,492.97444577357965L516.5151773530524,491.3978525514249L516.367189902805,491.091915051511L516.1004434277638,490.1617422577983L519.7539747433184,488.96534639189485L523.3955272135572,488.0285563194484L527.0033096620464,486.7469553097326L532.5776417398083,476.53151323494967L532.5776417398083,476.53151323494967L540.2347688547234,467.8960740522016L540.9890401243974,462.8610606441507L541.4810276676217,459.5768247518281L542.0846375623441,459.25838448895956L545.966888785566,461.487179996795L549.849140009137,463.71595578774577L550.4102297004356,464.03807218841393L551.5951121035905,464.88524959183997L555.36050454215,467.60258387454087L556.2995944761278,468.2802832428424L560.0613931676126,471.01132511362084L561.0662113372819,471.72104631518596L558.6918046613282,475.4208840804349L559.4743690208779,486.15195552361547L559.6276476360727,486.255520716717L558.343713848888,488.63017316765036L555.5881791358333,493.64871583660715L552.8342298994103,498.6695095485775L552.3490252491538,499.55408791135415L549.6283826397921,498.85044345026836L546.9077400304232,498.1467970239464L539.740214748279,509.56833390146494L538.847116354038,509.8263190196594L535.2607406972893,521.5289924926183L535.3997642251634,522.1293723635317Z" class="hulls" style="stroke: rgb(0, 0, 0); fill: transparent;"></path><path transform="translate(-6.791114325344097 28.268239988858113)" id="id220" title="id:220 , i:6" d="M605.4790391376082,686.5324884112633L601.543705415017,683.6960213826678L597.5788903963476,681.0995038600231L593.6639683820831,678.2308551540773L588.5210792023863,679.2579396506771L587.7490683779324,679.1203361590451L586.7247329815218,678.6649655715155L583.0483890167452,674.8571780287602L579.2917674517812,671.2698805140681L575.545400648436,667.66279636728L571.7310915859343,664.1922676886315L568.0822964220206,661.1925986500282L568.7523130774498,657.6241480609751L569.1262894635365,656.965377004788L572.9261109692379,659.380976561195L577.5079449572004,660.7676666406915L582.2948479753832,660.7166894563998L586.147115206506,660.8541920110292L590.407874386241,661.7555172635475L594.7709014626525,662.6691364886065L598.9185689508959,663.5221569162968L605.8634127558253,658.5143710472912L607.3204359130177,655.6547334599309L611.4839596309466,657.6908206894295L612.3230655844527,658.1011665258848L615.4214110938119,659.8753804772277L617.0331129197657,667.346660886833L617.7001125233,667.7831138680922L616.9271304862923,672.5374092713755L614.1685698177171,676.446356168919L610.1809725157582,679.4448678901535L606.8342464820234,684.2931851550529Z" class="hulls" style="stroke: rgb(0, 0, 0); fill: transparent;"></path><path transform="translate(440.73435001220787 155.4817560959491)" id="id230" title="id:230 , i:7" d="M-255.06821422373469,567.2461977342318L-259.59996426966245,566.3509176547523L-264.5161627679481,564.8341684401676L-269.2968695548625,562.775251941348L-272.13694784061227,560.9827983153518L-279.9559048473384,557.3175277805422L-281.9997592466607,556.4134294847026L-283.3703718995821,552.7040834038344L-283.4810278678633,552.2767844785121L-283.58402789421234,551.4265853800171L-282.97306992387894,542.3075125291944L-282.9058974411455,541.3048853499058L-279.0367960849253,541.7862628029543L-273.47596882002836,528.8955716255296L-273.36192404891335,527.3632130247715L-267.54700117795437,525.9813512674882L-262.308769361749,525.3634113318112L-256.57459855698835,523.1976990140975L-255.2718235952998,521.8513000152307L-250.13020649219834,523.1535194948374L-244.72464782885072,524.6447792600957L-239.3490315650124,523.7052797565702L-234.50820793896128,525.2995622996532L-222.5166866761574,515.1756914384605L-221.486665403012,513.5508258173068L-220.19396718248754,511.511570683273L-217.31023211222055,517.9091833990242L-210.7338196982164,521.3324267252174L-207.2046834400462,520.6247990076954L-204.40526639042946,529.2834627395496L-203.22245362871763,530.2814880956139L-200.80337678295473,539.6211067390104L-200.06373426827486,539.9682211987965L-200.4798544338846,540.9401640669385L-204.99181324720848,540.0584324771189L-209.76652550358267,537.1663019574771L-216.29896387655026,540.745014885324L-228.04271719168173,549.38566463592L-228.97509512621764,552.416116337874L-232.41851709160983,553.9592893291265L-237.75485001767083,554.2350610498688L-244.49162137047097,557.8128688978904L-248.3790996684038,557.3508200515644L-254.963906222496,566.4278934314207Z" class="hulls" style="stroke: rgb(0, 0, 0); fill: transparent;"></path><path transform="translate(30.701194149609364 43.41525517377886)" id="id213" title="id:213 , i:8" d="M469.2118975489793,724.3740074361267L469.0853122768749,723.9533609229547L468.9217673093517,722.6450877621246L468.9178866797156,721.4341222699732L469.017158313829,720.3311151197995L470.9078577904802,716.2224523046461L472.7435622677367,712.0484548662207L474.579295679403,707.8744187433622L476.41502909108385,703.7003135050472L477.6937737948392,700.7926527798409L480.69850732116174,702.2595803705626L483.7032408471423,703.726499424054L486.7018702020505,705.2275161096186L489.7088104528666,706.6821228254412L492.71575070369,708.1367211470497L495.7226909545061,709.5913110750262L498.03279645206203,710.708805526665L496.7865809435825,713.3166403910436L493.6102569817376,713.6362500495161L490.4787018535062,714.4919040749955L487.46101230971544,715.8793073359411L485.3113764470618,716.8676123647019L480.0509830826413,719.2774078417278L478.9801541744455,722.2881685890607L475.8981544062117,723.2275219450239L474.0114870279431,723.8025518425857L470.8850900262405,724.1747915451415Z" class="hulls" style="stroke: rgb(0, 0, 0); fill: transparent;"></path><path transform="translate(-6.647923167605768 -1.8871729983657133)" id="id224" title="id:224 , i:9" d="M362.4706517777522,797.4825808790338L360.09739003988216,795.4003760460182L363.3698772875141,790.534377594915L366.6317050543803,786.1478888800775L369.95777961832937,781.7064180127345L373.0230418245992,763.2008997718222L371.7694964432376,758.1580972989323L372.02105684546405,752.1658053978754L373.0442743734893,748.249492814648L375.26738993004255,748.9137778771692L378.1829962406482,750.7427783246676L377.85974350655306,756.7945864918001L382.871137168353,770.0092438349675L386.3058427982105,771.2072549150616L386.94203422992723,771.429155223479L387.0016531548972,772.299653744034L385.0563441519116,779.8293511574448L384.9198053264263,783.8114808366518L380.9692598390684,782.7602153089829L377.067289528517,781.2618107273884L368.53847459113604,787.3102934823837L365.3967725532202,792.3642218014866Z" class="hulls" style="stroke: rgb(0, 0, 0); fill: transparent;"></path><path transform="translate(-78.26982063706964 -11.712835724145407)" id="id204" title="id:204 , i:10" d="M833.5084825034501,908.5148588322336L828.8649684449774,902.1874012660701L824.7483528459925,899.7459091427154L813.3641421361754,897.7444645089854L810.5757577679396,901.4704205839662L807.2625255565436,895.4031249493128L803.9492933454821,889.335683342506L800.6360611340933,883.2680957543198L779.186925064314,879.215155976417L779.186925064314,879.215155976417L775.1290622563392,882.3666531308845L772.3089924282758,884.5568079821533L767.4159173926892,879.0795176883985L762.5228423574517,873.6021084279637L757.6297673222143,868.1245801932528L755.724709421127,865.9919405298424L751.5940273783781,858.7650976250588L746.5191886326502,853.7463914419059L745.8748696438124,853.0005948078178L751.1935450385863,844.9315836530004L751.1935450385863,844.9315836530004L753.6142337461715,842.7955701201572L754.8934802673466,841.6689545566915L756.2314823462366,840.5556862908998L757.5813459455676,839.4891623976873L758.5866010392201,838.7452609305037L763.0428195622881,835.7096681753173L768.6488623526966,832.5742050829576L770.8996232247155,831.292364786641L777.1117818361236,830.6996887580317L781.3082390024865,827.4590470296389L784.812798020037,831.6345459886652L795.0819433284705,831.4186932414013L799.9986412391081,827.2030396432965L804.9153391493892,822.9873155638052L805.8814285055414,822.4651864764746L806.3067512250709,822.5063836462796L810.4999078830588,829.7485463998746L818.1636602238359,827.2363196673105L823.9502394032752,826.5183031931228L825.0214652164432,826.3853819878423L826.7653997262678,834.3158647309174L830.8805658345445,843.4160758873331L831.8093913925986,845.2612100140541L830.997062848408,853.9668444501585L829.2016382887887,860.2408426175534L827.8369754922605,863.4479236101033L829.6784153053959,890.7309233702545L834.958265786714,899.8034961022786L838.3440471365611,903.8913881061017L839.7678855081394,906.4295313464827L833.9639222412734,908.3631291288766Z" class="hulls" style="stroke: rgb(0, 0, 0); fill: transparent;"></path><path transform="translate(17.75264512294234 39.10749397680047)" id="id207" title="id:207 , i:11" d="M493.8532588547896,659.9285002395045L487.76106740113755,655.8028736621782L483.8559247532612,654.9671657841536L477.374731730044,647.8124487767345L476.8403547881462,644.4960535593564L461.30222878714267,630.2719535894867L459.006932850898,630.5104627991386L455.84259787019255,630.8392753823136L448.34837067703484,626.813686765905L440.8182270813559,623.6426417228649L437.40469021525496,623.9750436051982L436.2903989382612,615.657808553573L436.47690751168557,610.9828674748424L442.0040886299321,605.5612502005242L445.4734721707282,596.6953615779348L452.08883015208994,596.491745772073L458.66619379426993,595.9602580514329L464.9881983492014,596.3907318742713L470.93482858646166,591.5245235258772L475.8629930586103,593.5619854208198L478.0550059399611,604.5238981694856L484.49821220432204,610.274443317845L486.8320149803112,613.220573905739L489.2211474421347,623.7579911528737L490.238240838451,625.3611480428372L490.0251280356679,637.9738734613929L490.6437528251554,650.7354429000115L495.0384568047448,657.4275236640824L495.54904942690337,658.2178754903725Z" class="hulls" style="stroke: rgb(0, 0, 0); fill: transparent;"></path><path transform="translate(-23.911591975709598 52.047332648944575)" id="id194" title="id:194 , i:12" d="M646.8606650777583,657.1997491558432L644.2993062128153,651.9867078350508L641.737947347865,646.7735586928029L638.9318127315564,641.8330618537439L634.0137203080885,637.5730600637326L632.9799865360183,637.4375782008865L631.3371931090005,629.8176510793855L630.8276929236818,629.7351655151288L631.329124042757,626.9543032397924L633.598145202166,627.3241425683373L639.4110957222656,621.4443326347682L642.4165354880533,616.8569620765629L644.3968763634839,603.6767976997944L644.8531608427656,603.4801195295586L646.13768440079,596.9641834297217L650.0514756169287,595.3530274651421L652.2561851025821,600.6832497112337L656.4468687686385,606.4318595089717L660.5659148625346,611.4078007400676L662.3967310446606,610.6361351817905L664.0529870430328,614.6359285523067L664.8093173617453,623.9261512774101L665.7205951899523,626.2831648596621L663.9671126320027,632.5257712141902L664.320369296147,639.5131436283991L664.1010746523389,641.1774945155776L660.1267936774602,643.942358205124L657.6786992046691,644.3204575530253L652.8402315294588,654.0448536794283L652.8402315294588,654.0448536794283L648.8959389330339,656.1259171609709Z" class="hulls" style="stroke: rgb(0, 0, 0); fill: transparent;"></path><path transform="translate(9.601300961461675 23.197468757047318)" id="id198" title="id:198 , i:13" d="M431.15635533504974,596.8607574185589L426.0309726832129,592.8302200858016L425.4749979550397,589.8886520837841L430.84482795569784,580.5502034960373L430.3850975817695,578.2668874989322L437.203027131196,576.5349328713783L441.78741521584016,575.8439263336186L448.7342785105284,573.9150632028759L454.7816601066006,571.9038088518137L460.82904170267284,569.8925384483882L466.4746138070914,567.8611601463344L472.9505646085818,568.982218208228L479.1212860310843,566.5650680062536L480.9101540072443,565.5802106095944L482.69254315087164,565.4729822480294L487.2507598268494,575.3964759875671L493.03515019132465,578.0222097574733L498.82044311755453,580.6459955744504L499.90922526398936,581.135416540521L499.9639895682121,581.4162517139339L499.8112433503484,583.6126392655424L499.6750333853852,584.2647614307061L498.79712270178425,586.9428689610213L493.22838390127436,584.5286545430135L488.1865789049043,581.6110664570006L479.80144241801463,583.6957228008541L473.7120717661892,585.2239592502883L468.312561223378,588.8514574504225L461.276602146354,590.5690275222587L455.783631595732,590.4572565427225L449.6432123353661,590.3402844756783L443.3289089187019,593.6317613916763L437.2511153311207,595.2440142489795L431.17332174319745,596.856256792671Z" class="hulls" style="stroke: rgb(0, 0, 0); fill: transparent;"></path><path transform="translate(15.390925782019622 64.51692605411517)" id="id217" title="id:217 , i:14" d="M504.31652658087114,589.2644782765419L503.1360821276394,589.209346502088L501.4946693499587,588.7926621494698L499.7453246667792,588.2917183270038L499.49454097481794,588.1669842392439L499.7626100882917,587.2497225526313L497.5233427469575,579.4213666309079L495.9486325437465,578.7209423148015L494.36183582690865,578.008637052204L492.85024018939293,577.3300873125263L491.76075453913654,574.7916123840841L490.6712688885236,572.2531118853367L490.52868220815435,571.9208831676515L492.38723453268904,571.356570117583L494.2457868568745,570.7922558036516L496.10433918140916,570.2279402267595L496.5494747037228,570.0927827414998L497.48490043238417,572.1710523087531L499.95975592200557,573.5017447740829L501.6721394108681,574.3740780875669L503.4770635466193,575.3133159498684L505.284194136344,576.2077775599319L507.09132472606143,577.102235995786L508.8984553154369,577.9966912562668L510.722931729375,578.8169974266202L512.5380210361909,579.6528434711217L513.1811339309425,579.9489953793818L512.5759982718446,581.0377203817188L509.9823181567772,581.5488584252016L508.70139306275814,583.2451962165069L508.12594218312006,587.4167968432885L508.01298365920957,587.7945403706399L506.19616142370796,588.6505418057495L505.426722473494,589.0130644789606L504.7128915416615,589.1967460026208Z" class="hulls" style="stroke: rgb(0, 0, 0); fill: transparent;"></path><path transform="translate(93.7764952159996 46.74541921803029)" id="id210" title="id:210 , i:15" d="M217.58224836254522,679.7288605136855L214.3082566749581,679.445884238492L214.49809310536511,675.9906650550547L214.64394123678358,674.4923921207956L203.87246993635927,658.4101753105642L200.71812849942216,658.7840575179143L198.66158735831414,659.0278178121953L198.19768262666912,654.7361408751749L193.72592134167644,646.3734181363543L192.51170982293115,645.7556477680628L195.20358870215568,640.255714411498L196.3091525331838,637.9968382662919L200.1333868139991,639.9070785939984L203.95762109446514,641.8173044440337L207.78185537528043,643.7275158160483L211.60608965574647,645.6377127112355L221.1815265644109,640.164070207451L223.2055616725047,636.3592202558066L224.55940895687672,634.2889415029495L226.38898317212443,635.2813242147677L227.6471768860938,636.1266101731162L228.75673074469523,637.0910844858154L229.59849990622024,637.9638888019253L232.82854017223872,642.3818851002434L236.24799834393343,647.175610337581L240.3004825711032,650.1632958543487L242.74123607247748,651.682652763091L243.17068050885428,652.335505517869L243.22464050461713,652.9538223246636L239.4626707949501,653.3659335449629L235.70070108528307,653.7780440914794L231.93873137561604,654.1901539634564L228.17676166594902,654.6022631621745L218.44636362654273,670.2440338875458L218.02963205010747,674.8182676933648L217.61290047401417,679.392418490781Z" class="hulls" style="stroke: rgb(0, 0, 0); fill: transparent;"></path><path transform="translate(0 0)" id="id193" title="id:193 , i:16" d="M505.07564981839096,925.6435503108369L501.11666756861086,925.4780652850459L498.2209635727777,925.2501170415198L493.8461958518383,924.3752802860399L488.1703096989004,923.089995149785L483.498387672269,921.683190505195L479.82987864759343,919.9771242278803L475.3904247652681,917.3850873709016L472.25203871016856,915.2035483146028L463.56683630417683,906.9970008608361L453.4551332568735,899.6810806524882L450.17936413958523,899.8060614230635L447.4187852738469,884.0219982340059L443.78917340526823,879.1143975544837L441.364206264916,862.8559938394174L441.25714300245454,862.3384298425808L447.6147089805381,849.2373395874165L449.86349118989165,844.3973986684869L457.81249384995317,835.3037014900183L465.7242295860269,831.0290520684794L479.41097871213424,798.7583837728598L479.5827300265155,797.2533600896422L479.8932170273256,794.8927081032889L488.14647150607925,795.0457252390042L496.17846238447964,795.1990113926295L509.0465667741155,788.4445631017734L509.62258903615293,788.5973543509317L536.8107062444033,742.3926703849866L537.2429612822161,733.8068557686638L539.5361630069601,728.8662228649191L542.5236847901542,722.1043911582092L545.7907802542613,719.6007374046894L555.2459153536329,723.9174162652052L570.8219231281037,724.3059371922864L574.2115508684001,725.8731989246735L589.7689010735266,716.7967395177693L592.6225964243786,711.4037881822151L600.9547579489663,716.941547652561L612.9283438959537,732.2163011060911L619.4547304521329,730.6458632941649L627.7708131407635,750.4937673051318L637.4557050974763,755.6631232059153L653.7430351614094,749.2110747600673L656.5811707295434,745.7426666848187L656.5971635357782,745.7554081088747L657.5047657372343,746.5277339796885L658.5356978471027,772.4892843842099L665.3343228653903,777.3115404799464L663.7494068186643,778.9833323581261L664.0247176718185,821.8108127121814L666.2236881577919,823.665673051466L669.373073742092,838.4514716934063L667.0923214645154,838.9698174384248L653.073453889876,867.9681083966861L651.821281816643,875.4693123314646L645.5193164801312,878.0497968669806L635.3905397173075,879.597523949109L626.4557122118567,880.1436683223001L619.81115767546,876.926913648349L599.5817123416127,873.9402188863605L594.1195856345585,875.0588846105675L583.4052802117658,877.5752425470564L574.1396013933336,879.2865905354265L559.4279609953301,896.6041984826443L554.8511405410318,899.123092464346L543.7539080697534,908.3285142277891L534.153033493043,909.0248236072366L525.1897728845943,917.5942901494273L515.9113174594677,923.3349371762015L515.5883713182848,923.4619690397521L511.6306020674383,924.6165692228242L508.38329345760576,925.3372485453438Z" class="hulls" style="stroke: rgb(0, 0, 0); fill: transparent;"></path><path transform="translate(210.00263133507542 195.92421938310144)" id="id212" title="id:212 , i:17" d="M107.88530447290395,446.6085445032804L107.42627942283434,446.583621782338L102.15219457420608,442.2679014936439L96.58592669844802,440.6177529701672L91.01965882234799,438.96759363723686L87.00745405834459,435.06775795135763L79.35623395058792,429.41482309706043L74.46992155969929,430.1439370222797L70.24944152966782,431.00521197382477L62.11210182747891,421.39870801536017L57.50539753297198,425.21924442323507L55.76029514550464,424.2594123534509L46.03934800675779,416.9428586027643L40.86480817852862,417.62967763026245L35.46077278479788,417.9098044966522L29.95660935635533,417.9670517106424L24.418011867033783,417.3996162873518L23.921229166073317,417.2458182545088L22.55285910625389,416.51313545685844L21.36834629576333,415.6686116573401L20.2930050513678,414.527731284732L19.32775025232695,413.2753662347677L18.470187690174498,411.4308370400686L18.01852706909267,409.62123261994566L16.27907788650191,402.01209128755727L15.738604182450217,399.37194113226724L15.850775715058262,398.37295138207264L17.865137024055002,391.1388294280041L18.44161002329929,389.25648620480206L19.42761522577348,387.2546112254495L20.940624281538476,385.1913490308507L22.9838704276699,383.71277564772754L24.854293825890636,382.8224124322587L26.90136347598309,382.10738958470756L32.503178819933964,381.1996724239143L38.10499416424136,380.29195199278183L43.71656055031781,379.3107864596823L49.31821197539102,378.3260249910527L54.91398453882721,377.4119923207036L60.51580508909683,376.4616782507219L66.11762563970842,375.5113605952356L71.71944619032729,374.5610393549432L77.29079431916034,373.6563656782091L82.89253414619452,372.76701682418934L88.50328315270599,371.8642566179624L94.10508634078724,370.96035608349484L101.63946056570421,364.5660083859402L108.62968930722855,354.6918885151681L108.62968930722855,354.6918885151681L114.22924430319108,353.3687074841582L119.80927878281364,351.76413786702324L125.36671253423265,350.01479004794965L125.48449980578152,349.97733181438525L129.68627964621555,349.16395195852965L136.44706949063402,351.20455252492684L139.97972358069092,347.95672075098264L145.4792237033471,349.3787234038755L151.21144332530093,350.5932225767465L151.714273720223,350.51111664637574L157.1604878248545,361.17343374041957L161.877580759392,360.5364311931771L166.86984345711244,363.1621827339113L170.54251113540522,365.7114667445421L171.4323114430954,366.4776932670793L175.6541799593324,373.6912757388782L176.19120377298532,373.62500784237636L177.68718031869503,383.93816842359956L178.19655054504983,386.2934373121534L173.83254350221978,392.2220753948204L173.79098321068886,392.29573452388286L168.83729730969935,394.4144968308683L163.8851486430649,395.9634817428596L158.8931043275661,397.4392434855399L153.73251864860504,399.1181045877456L149.85009328516026,400.1088247495645L136.69944253002177,415.5319043903728L133.92936202132114,422.88245479072793L132.2767539921697,434.8389642027323L132.29069392014208,442.363572650007L132.348691390951,442.75772884342587L126.71009224341833,443.75032593193464L124.32958058236545,446.28950668196194L118.57452696546534,444.8599638675223L112.9687762332178,445.8108613116783Z" class="hulls" style="stroke: rgb(0, 0, 0); fill: transparent;"></path><path transform="translate(1.2694442814317881 9.723447478434537)" id="id214" title="id:214 , i:18" d="M545.9086945742602,705.265877426049L539.8509761826135,702.446889170591L533.965744551846,704.8700128371129L529.6439337786142,702.4130516110454L528.0118884546027,700.5518298551615L524.0490683863609,692.0856810115511L519.894852042984,683.9005280614947L515.3967074960383,676.0701765693084L515.3749612632237,676.0337899715814L515.6368715443605,675.9328802808886L513.2439151509752,646.6661757954862L511.9204984085154,646.3572984519124L514.3946808384353,642.9358297455474L518.4842902911987,644.2108240801608L523.6468372552772,645.1221539410762L534.3042019280183,615.9708125827601L534.3042019280183,615.9708125827601L535.0478949668759,615.4815123564331L539.9428313545795,621.6610626957845L547.3267201414201,629.5457248341991L549.4268429100193,628.3105665979383L550.2868609025973,634.7204054363247L558.6088332962318,647.2274551750452L564.5533366825985,650.5297254533798L570.4264058171902,653.6813972527452L570.9113771678822,654.0006682615785L566.5419419255777,661.9851819281175L562.7112022238871,670.6410049890983L558.8450952278363,679.2300003964046L556.8531434514516,683.7781538429554L550.9384890032525,689.7893056282774L547.7535054636173,700.9114467385807Z" class="hulls" style="stroke: rgb(0, 0, 0); fill: transparent;"></path><path transform="translate(100.78400067766052 43.29122611670755)" id="id209" title="id:209 , i:19" d="M239.89757391646708,727.8618979806488L240.33615921705496,722.8897621679644L235.23121451247425,711.9116052123427L235.25191825279035,711.6993979663821L224.78965213660558,697.1770919038972L220.76031973442878,696.8009016774304L219.96189454414707,696.7263583056629L218.08132514905446,693.2864800420066L218.87038920341,684.8160357899615L219.6405530342381,676.3278031005757L219.2686673124481,665.0479633373034L217.746124827092,662.4411599473679L218.3295847535337,661.8047144332959L220.096216015736,660.0860197849979L223.931951753475,658.8843824740616L229.21178070511814,658.3024081016774L234.491609656754,657.7204323855403L239.77143860839715,657.1384553256503L244.19614402988373,656.6507345036662L248.9557418826007,661.4958321683225L254.11757569223846,663.4055734052672L261.0463452866752,663.8741813592496L261.18555509040016,663.3903094872076L261.9377909885079,663.7841545084957L260.6353332180661,668.1647638970171L259.53789275362215,671.8684415862081L270.6736457326697,697.2329465666553L272.76373578498897,696.8315323036222L273.54450700025336,696.6815803705249L274.3731173904671,699.5024341705139L269.95983799311944,700.1701263756258L261.3764796990363,706.9602538090548L259.1657405036385,710.4233001003158L255.4039708205746,716.315872520936L251.63555793824344,722.1913085524866L248.80040794918023,726.6039764829329L245.5383390465795,727.0862976595236L240.26508429818932,727.811365693633Z" class="hulls" style="stroke: rgb(0, 0, 0); fill: transparent;"></path><path transform="translate(134.0736557758646 84.20664220585604)" id="id201" title="id:201 , i:20" d="M192.0822798815134,597.3351526161132L188.10976216565177,597.170958816394L184.1365432721359,597.0201384434476L180.16346922349476,596.878186536429L179.60878454008343,596.8583684879704L172.02959544255282,597.1367462998023L172.02945287603507,597.1442667917581L168.0553034979239,597.0553204449534L166.8346380504081,597.0280004462984L162.86123691555258,596.872593820066L160.56958479953755,596.792866706819L157.2736767018505,588.8079002694285L153.92459174148826,588.7471877486096L153.0764885570461,588.7318132532528L152.88440465848544,588.3305294919992L153.53446224765503,581.8127500531264L153.45127460206277,580.5064637381001L154.97611594539921,574.4733048614289L156.46720602439018,568.4175479827682L156.99852490369813,566.2596700389404L160.91173358582455,566.0359774914978L160.91173358582455,566.0359774914978L168.50426862762106,576.1183108398109L173.44924090390123,573.7550975227787L176.31963206599903,573.9153608467896L185.51887310188613,558.5275528226048L185.51887310188613,558.5275528226048L187.657924195737,557.704307054606L188.29779474172392,559.3722185890947L188.82290482270037,561.8126170778414L190.14815834967158,567.9718943333137L191.4734118766355,574.1310210485826L192.7957861656978,580.276616443618L190.50566609865928,587.9352687320206L191.76330739496916,593.8295913339243L192.4656441740808,596.7869852602016Z" class="hulls" style="stroke: rgb(0, 0, 0); fill: transparent;"></path><path transform="translate(5.429574949812377 40.237609999778215)" id="id216" title="id:216 , i:21" d="M545.49816077578,563.3207763093524L542.0410025490637,559.3766405741917L536.6633516243674,555.0434648489754L526.0215260986151,554.396637625352L525.6668181855275,554.1990578294499L520.7979501123336,551.486979864043L507.58146467561164,554.2416151954094L507.0706496719795,554.4897143640846L498.900146616812,558.7226851094747L497.42040039500716,558.8510986652109L493.7123998112729,559.1728816221585L491.94893738282553,558.4564840323001L491.9432778895207,558.4456752811093L488.46508174709015,551.771893537516L487.3512634860963,549.6347196610586L484.75401581436745,544.0242182456423L489.7683858214077,542.0679518339457L492.95169087476097,540.8260346512543L499.86773391750467,536.1442939411208L504.37128872333415,528.5251904287143L507.28960775137966,523.6817042372131L509.6094573893424,522.9439860436541L510.4435483797497,525.6632553265081L521.5838088171586,526.016170568153L525.0816458383633,527.3999621350667L532.1968725622937,526.1169878474902L536.4857397484739,525.1218971600756L541.7193655119845,523.9076009673881L543.3575583861821,523.5275092771335L543.9890897444711,526.8726596562192L548.626560019904,543.7228556540504L552.7816286798188,546.5771634800767L555.6129092247138,548.5220818251546L554.4368865303259,551.7539963897434L552.0705212665634,557.5386755632353L551.8295823684894,557.9443043557403L550.2707451850365,559.5777805332618Z" class="hulls" style="stroke: rgb(0, 0, 0); fill: transparent;"></path><path transform="translate(-26.285269343796244 61.87077689921716)" id="id196" title="id:196 , i:22" d="M664.8550745889297,601.4500501500734L661.8148748921885,594.1584481825994L658.7692754713862,586.8508188222768L655.6958422266252,579.9294316776504L651.8568995908936,573.131420335354L650.8977254334386,571.6399640447926L652.9997691756435,569.952911622182L655.1842310537031,568.6349279818241L658.768763573993,534.2989612219972L656.3562842965548,530.5043855046679L653.9438050194658,526.7097526431899L653.535373739207,526.0673179421574L658.0883230034742,521.3312123467622L660.0900248201651,519.1531707160175L660.4090897072383,519.1946785195323L660.9807873701066,519.4712536101288L664.7892670227884,525.7353173257143L664.8664421822468,525.8622509131092L668.6275067927854,532.203055356309L672.3872074717947,538.5458565539448L676.1575952688727,544.8721157575492L679.948756251164,551.1637322370661L681.7673871874285,554.1817831875233L685.5399375944107,560.5034664502891L687.6893593585701,564.1051932882692L688.1484789080932,575.346918278141L692.1652822520045,580.6400864213647L692.7798803218684,581.2923366779287L690.1459889312173,582.193142019707L679.1509715290013,595.6546948126634L679.1509715290013,595.6546948126634L679.1509715290013,595.6546948126634L675.0042692263378,597.3670085732883L669.7646506374731,599.426920755126Z" class="hulls" style="stroke: rgb(0, 0, 0); fill: transparent;"></path><path transform="translate(34.27607304295816 33.285383503040066)" id="id218" title="id:218 , i:23" d="M399.7672631557725,690.5039807987341L397.49262743726285,690.0798631920188L396.78218068698334,689.8475988913851L396.06424519662687,689.6113069048733L393.24951539784524,688.3126514252217L393.09362933545344,688.2601531190448L391.342564465529,685.7933049901039L390.4675531033281,681.2113336971961L390.1439775363833,679.5415206189791L389.4625828208955,674.8702063362289L389.3863490895965,674.4546742048988L388.7789523197862,669.7560846713895L388.39559823041054,667.1312761740992L388.6054418077547,667.057575224142L390.72073729462136,666.5021667429537L393.617030928639,665.8563097662991L394.7709806743587,665.5880434256687L395.2559331070952,665.4812915493385L397.1297824319845,667.974689924129L401.1970868076387,668.9803358421777L404.12953923481837,669.6564436898043L407.524695494365,669.4056738412764L409.89313725767715,669.1508760919678L412.778961203614,668.8404178482888L415.6647851499001,668.52995922236L417.1630914885027,668.3687703997712L417.30566506495234,670.0595499765477L423.0299587114787,674.9354789575737L425.8263678610165,674.6459553708555L428.622777010547,674.3564314522955L431.4191861600848,674.0669072005257L432.08450237750367,673.9980241054145L433.4207596793567,678.269127862819L434.75701698156627,682.5401592492708L436.0932742834266,686.811118268437L436.3519909300303,687.6380226531764L435.489057330371,687.8640660459932L432.5709026453187,688.1363431638165L429.6527479599172,688.4086199875746L426.7345932748576,688.6808965172095L423.8164385894561,688.953172752721L420.89828390405455,689.2254486935853L417.980129218995,689.4977243409376L415.0940879593254,689.7670033863105L413.3656591793697,687.4767894832185L411.63723039977776,685.1865547724301L401.35116135335556,685.7381557228218L400.63016430381685,687.8714507571422L399.9376427603929,689.9841906122456Z" class="hulls" style="stroke: rgb(0, 0, 0); fill: transparent;"></path><path transform="translate(2.1930858239284134 1.144466783007374)" id="id205" title="id:205 , i:24" d="M484.46861670296494,793.8478810481029L479.7933504167522,793.7342963969277L479.2163377693869,793.7202779871004L474.66525932214427,791.359784084314L470.0324974821633,790.5408811409434L466.9122412919314,789.9731825852941L461.45263803566195,784.5557021257409L452.7831115514855,789.2721866951615L451.38450076303707,788.9364123068226L446.7734276814663,787.8293961974268L442.1782445280551,786.7261900714948L437.2163637627382,787.0029784523358L432.4703019209919,787.3450940412586L427.8652971031479,788.0092157621402L426.35528441642964,788.2269854516489L427.9225239182415,780.9925794804003L428.3883919358632,778.4881712814094L429.96534581672313,771.2593191504129L431.150140138001,765.2945512665901L432.7103874134409,758.0548704695539L434.2706346892446,750.8149817689555L434.4448544775951,750.0065509327687L439.01807565455965,751.0729790262412L443.59129683152423,752.1394026092312L448.14754561526206,753.2018639349553L453.39491657757753,754.8357834527851L458.12510417854355,754.4644709759159L462.776749555298,753.7115929622087L467.1763903477331,753.1448860523815L471.7459886882207,749.095724779967L473.47359082193725,749.3014522815356L474.68224975857447,749.5603585772624L479.3133907737647,750.6190491554735L480.5508984600601,750.9019457976974L481.0756557981367,751.0600020997226L482.34748371214664,751.6479913510266L483.82566473838233,762.3889807363739L485.44044032615784,762.9070830047713L485.76084835962683,765.1112535051652L484.0183976306507,767.869175365573L487.2509065043196,784.7199002777052L488.52680020611297,785.1492126711237L487.68490077390743,787.0786470975727L484.8084481786136,793.1326546895434Z" class="hulls" style="stroke: rgb(0, 0, 0); fill: transparent;"></path><path transform="translate(44.793433698272565 53.07813172644819)" id="id202" title="id:202 , i:25" d="M336.04442803793063,632.7584580946714L334.46016974122176,632.6252230097307L332.9987415021533,632.3420353962865L331.526615662573,631.9454902452708L330.20319346561155,631.4401331668487L330.79372720766696,628.4841029359086L334.09362885569135,629.7615099573159L339.16148086971225,629.8275713750336L346.6618257941009,613.8327062767639L347.9062565627537,610.1490815922734L351.0266646074524,607.5503589930304L355.2698705145158,603.9977194349049L359.51307642194297,600.445029795228L360.624340541588,600.4850482278271L370.132773842779,589.4350265618996L371.1526651945751,588.7691446800891L376.075611282351,575.2081681315321L376.918150790676,570.0206740860012L377.66819524011953,568.6715385402786L378.27999591614935,567.9813561198825L379.2168738652108,567.1685714818304L380.11405737989116,566.5648658003483L381.05167950313626,566.0064442486328L381.34639897817397,566.0784564216447L383.87402792171633,572.128058475937L389.53912987439253,578.5894871569762L393.20946224036015,578.5361024755402L396.2110863345224,587.0428714189329L400.34576724562794,589.6816151564999L402.3111063818942,591.4590845512284L405.12747675561695,595.540683751693L408.4788543351169,601.3090134946979L409.44829049764667,602.6462397800351L404.25512696642545,604.0694422696833L399.8646997650212,606.8373484224139L395.704435852982,610.374699250533L391.7753184797184,610.388554744568L385.33168042683246,617.6956597979588L382.96160629617225,617.6790468672698L375.2171227403014,622.4467530742986L373.2022414080129,628.0617145312717L372.43522580627905,630.1991589239042L367.6138340132384,629.7782256885548L362.79127160169446,629.3973162565962L359.9727636405005,629.0923439681064L351.2128603082674,626.9387753886986L347.7677510000867,629.7152945380367L343.2921697593847,631.5397315887385L338.52721149403806,632.604031949013L338.22427636814973,632.6471957792237Z" class="hulls" style="stroke: rgb(0, 0, 0); fill: transparent;"></path><path transform="translate(94.77486487349961 30.271983408980304)" id="id197" title="id:197 , i:26" d="M126.5221936765156,719.3022187309398L124.12384578025376,716.4119742560433L122.26345937543374,712.0196302218246L123.58260870513914,696.9757230589166L119.49838337774418,681.1988675144094L118.15374994305603,680.1632851588365L124.07955770455737,670.2213297348062L124.52112872873113,669.4804733571364L127.70737186585757,669.0719398965593L136.16352374715643,668.2963530589768L137.36873929508874,668.1796241738484L146.02153811471362,675.0109394120809L154.11327533270378,674.5598805211193L162.38703366164555,680.3031400423497L170.757932234912,680.4875107465195L177.4330073495221,680.5046404191526L187.35551039689017,686.4656370289158L195.73204190966499,687.3101908189128L204.13833939463075,688.125088723842L212.08811268248246,688.6734912101529L214.13135455675365,692.8702838878671L213.84709230709268,696.1698381790193L213.3547101428412,701.3152040176792L205.1815816035305,701.2929285136925L196.96859632086125,701.7427362829912L185.15203910506534,709.3859843866667L180.32732897999813,710.7434568226454L172.17594604240003,709.9960976635048L165.29227013202035,718.4369110279367L157.90531435523008,716.0735073493561L148.35491798135627,718.7737312077661L139.88589818542096,718.9273076740792L131.4178778634523,719.1648731866153Z" class="hulls" style="stroke: rgb(0, 0, 0); fill: transparent;"></path><path transform="translate(2.4877340950697544 13.043379290698795)" id="id211" title="id:211 , i:27" d="M512.9817270026033,624.0028555021272L510.8114604353832,621.5359439807362L508.64119386781385,619.0690083132358L506.83792066308524,617.0192145608889L505.9067273693872,615.9595142116013L503.9320305044239,613.0602568014001L501.72701957388927,610.6614007279859L499.5631703906911,608.1758087609778L499.3314226603543,607.9024279021833L500.7262172605697,606.828158069693L501.3131212930384,598.7855962276517L501.0365560598875,598.3121266048402L503.5851054106606,597.2705752448819L506.1220806981073,596.5476553583285L508.5484756783553,596.2573303904792L511.02710539640975,596.4505590058398L514.6073323726887,592.9925927840814L515.4368394348858,590.9973565724504L515.6690756720564,590.9095137252298L518.1765069753965,592.2357819657482L520.473943398094,593.2820924353437L523.4018462294189,594.0625811561767L526.0141772606512,594.4120174800337L526.5159030150462,594.4791303598613L529.192009565355,595.9185164168011L530.2692711592172,595.7594286361418L530.9838802586673,596.0424115684L531.8797054544557,596.5336639496672L534.3288668016248,598.1482115050312L535.7274164836635,599.07016530275L537.2500949490131,600.1277727256238L536.3942854109191,601.2494866543857L538.1572974295777,610.3506210100022L538.9922589570488,611.5568892555602L538.2074204415039,612.6479814156191L536.9446957344771,613.9487728898821L535.6901662394375,614.753093719657L534.5548750463859,612.968609179632L529.3479689860251,611.1945445929887L526.667965362285,613.2476710559276L524.3314150041697,615.0695754322223L521.9948646460543,616.8914666374621L519.6583142875825,618.7133446722873L517.3140410353226,620.5444533768168L514.992194427934,622.3979443163844Z" class="hulls" style="stroke: rgb(0, 0, 0); fill: transparent;"></path><path transform="translate(146.66582785209175 220.83035773588927)" id="id225" title="id:225 , i:28" d="M311.30421495790506,487.35445152045577L309.2779667810464,484.9122564480058L311.86389030314604,482.69671032959013L313.81710523016227,471.99621038360056L313.59580170715344,471.7322882808512L316.72365219357016,469.06237495251116L318.6234520225553,467.4407040613005L319.94522294885246,466.312466736621L323.09218061051797,463.7032498185872L324.16660479260463,462.77841777540743L326.48175499017816,465.4107090802863L331.8752805354452,465.6792008987104L336.2493176235148,466.89004422325525L338.9724253781533,464.33229374169605L341.06575396010885,462.22734412224963L343.83020870958717,464.79880779251107L342.210932480717,466.3704894508992L343.0709915761472,477.7615149190533L343.5869896083095,478.31932414267794L341.5271758900417,479.24514208946493L338.0816279024293,480.4622992827208L335.4175504370869,481.4033940442314L333.30521155194583,479.00055949177477L327.324967513865,478.6328053388279L324.18781176544144,480.62637831651955L321.022548943969,482.4559000777954L317.7108373985029,484.15690306728357L314.3678022292879,485.7990751785401Z" class="hulls" style="stroke: rgb(0, 0, 0); fill: transparent;"></path><line stroke-width="4" x1="369.2896609569507" y1="770.0521810538194" x2="559.9093155606097" y2="824.1641579898132" style="stroke-width: 4; stroke: rgb(0, 0, 0);"></line><line stroke-width="1" x1="559.9093155606097" y1="824.1641579898132" x2="485.11390752012085" y2="731.2815596984583" style="stroke-width: 1; stroke: rgb(0, 0, 0);"></line><line stroke-width="1" x1="520.8255940573436" y1="619.2452300905716" x2="542.7844029925327" y2="533.7403052505688" style="stroke-width: 1; stroke: rgb(0, 0, 0);"></line><line stroke-width="1.75" x1="559.9093155606097" y1="824.1641579898132" x2="718.214945029511" y2="847.8541040900454" style="stroke-width: 1.75; stroke: rgb(0, 0, 0);"></line><line stroke-width="1" x1="559.9093155606097" y1="824.1641579898132" x2="195.0751058389942" y2="695.4583659184573" style="stroke-width: 1; stroke: rgb(0, 0, 0);"></line><line stroke-width="2.5" x1="559.9093155606097" y1="824.1641579898132" x2="520.8255940573436" y2="619.2452300905716" style="stroke-width: 2.5; stroke: rgb(0, 0, 0);"></line><line stroke-width="1" x1="485.0145276804251" y1="659.1776196096325" x2="559.9093155606097" y2="824.1641579898132" style="stroke-width: 1; stroke: rgb(0, 0, 0);"></line><line stroke-width="1" x1="559.9093155606097" y1="824.1641579898132" x2="473.9461590433275" y2="694.7319999756874" style="stroke-width: 1; stroke: rgb(0, 0, 0);"></line><line stroke-width="1" x1="369.2896609569507" y1="770.0521810538194" x2="444.61592930712504" y2="712.2031240639335" style="stroke-width: 1; stroke: rgb(0, 0, 0);"></line><line stroke-width="1" x1="343.78355706492584" y1="731.3284993755806" x2="195.0751058389942" y2="695.4583659184573" style="stroke-width: 1; stroke: rgb(0, 0, 0);"></line><line stroke-width="3.25" x1="559.9093155606097" y1="824.1641579898132" x2="468.920795410304" y2="604.3290166987863" style="stroke-width: 3.25; stroke: rgb(0, 0, 0);"></line><line stroke-width="1.75" x1="468.920795410304" y1="604.3290166987863" x2="559.9093155606097" y2="824.1641579898132" style="stroke-width: 1.75; stroke: rgb(0, 0, 0);"></line><line stroke-width="1" x1="559.9093155606097" y1="824.1641579898132" x2="517.0079460000488" y2="644.3267312645912" style="stroke-width: 1; stroke: rgb(0, 0, 0);"></line><line stroke-width="1.75" x1="559.9093155606097" y1="824.1641579898132" x2="369.2896609569507" y2="770.0521810538194" style="stroke-width: 1.75; stroke: rgb(0, 0, 0);"></line><line stroke-width="2.5" x1="559.9093155606097" y1="824.1641579898132" x2="485.0145276804251" y2="659.1776196096325" style="stroke-width: 2.5; stroke: rgb(0, 0, 0);"></line><line stroke-width="4" x1="559.9093155606097" y1="824.1641579898132" x2="540.1884041631274" y2="673.1096776904305" style="stroke-width: 4; stroke: rgb(0, 0, 0);"></line><line stroke-width="1" x1="500.8112126308479" y1="708.4793405206874" x2="485.11390752012085" y2="731.2815596984583" style="stroke-width: 1; stroke: rgb(0, 0, 0);"></line><line stroke-width="1.75" x1="559.9093155606097" y1="824.1641579898132" x2="427.2657819508968" y2="835.6485495930247" style="stroke-width: 1.75; stroke: rgb(0, 0, 0);"></line><line stroke-width="3.25" x1="559.9093155606097" y1="824.1641579898132" x2="343.78355706492584" y2="731.3284993755806" style="stroke-width: 3.25; stroke: rgb(0, 0, 0);"></line><line stroke-width="1" x1="343.78355706492584" y1="731.3284993755806" x2="251.85212798964494" y2="725.7677943166345" style="stroke-width: 1; stroke: rgb(0, 0, 0);"></line><line stroke-width="3.25" x1="559.9093155606097" y1="824.1641579898132" x2="309.6505186420618" y2="699.4159217925917" style="stroke-width: 3.25; stroke: rgb(0, 0, 0);"></line><line stroke-width="1" x1="419.23034115291375" y1="657.4661284291942" x2="542.7844029925327" y2="533.7403052505688" style="stroke-width: 1; stroke: rgb(0, 0, 0);"></line><line stroke-width="1.75" x1="559.9093155606097" y1="824.1641579898132" x2="310.9210096498573" y2="591.8678331252886" style="stroke-width: 1.75; stroke: rgb(0, 0, 0);"></line><line stroke-width="1" x1="542.7844029925327" y1="533.7403052505688" x2="559.9093155606097" y2="824.1641579898132" style="stroke-width: 1; stroke: rgb(0, 0, 0);"></line><line stroke-width="1" x1="343.78355706492584" y1="731.3284993755806" x2="308.41400295868516" y2="666.209370510187" style="stroke-width: 1; stroke: rgb(0, 0, 0);"></line><line stroke-width="10" x1="559.9093155606097" y1="824.1641579898132" x2="251.85212798964494" y2="725.7677943166345" style="stroke-width: 10; stroke: rgb(0, 0, 0);"></line><line stroke-width="1" x1="626.1903805211768" y1="679.8930178738956" x2="520.8255940573436" y2="619.2452300905716" style="stroke-width: 1; stroke: rgb(0, 0, 0);"></line><line stroke-width="1" x1="444.61592930712504" y1="712.2031240639335" x2="369.2896609569507" y2="770.0521810538194" style="stroke-width: 1; stroke: rgb(0, 0, 0);"></line><line stroke-width="4.75" x1="343.78355706492584" y1="731.3284993755806" x2="559.9093155606097" y2="824.1641579898132" style="stroke-width: 4.75; stroke: rgb(0, 0, 0);"></line><line stroke-width="1" x1="559.9093155606097" y1="824.1641579898132" x2="527.3512493278249" y2="582.8821453962591" style="stroke-width: 1; stroke: rgb(0, 0, 0);"></line><line stroke-width="1" x1="559.9093155606097" y1="824.1641579898132" x2="643.4749167986956" y2="627.4658246749605" style="stroke-width: 1; stroke: rgb(0, 0, 0);"></line><line stroke-width="2.5" x1="559.9093155606097" y1="824.1641579898132" x2="419.23034115291375" y2="657.4661284291942" style="stroke-width: 2.5; stroke: rgb(0, 0, 0);"></line><line stroke-width="1" x1="540.1884041631274" y1="673.1096776904305" x2="559.9093155606097" y2="824.1641579898132" style="stroke-width: 1; stroke: rgb(0, 0, 0);"></line><line stroke-width="4" x1="559.9093155606097" y1="824.1641579898132" x2="460.8526788381205" y2="772.4712287284492" style="stroke-width: 4; stroke: rgb(0, 0, 0);"></line><line stroke-width="1" x1="251.85212798964494" y1="725.7677943166345" x2="308.41400295868516" y2="666.209370510187" style="stroke-width: 1; stroke: rgb(0, 0, 0);"></line><line stroke-width="1.75" x1="559.9093155606097" y1="824.1641579898132" x2="590.2717109288351" y2="697.7796741203347" style="stroke-width: 1.75; stroke: rgb(0, 0, 0);"></line><line stroke-width="2.5" x1="308.41400295868516" y1="666.209370510187" x2="559.9093155606097" y2="824.1641579898132" style="stroke-width: 2.5; stroke: rgb(0, 0, 0);"></line><line stroke-width="1.75" x1="559.9093155606097" y1="824.1641579898132" x2="411.51387278046604" y2="748.92987592789" style="stroke-width: 1.75; stroke: rgb(0, 0, 0);"></line><line stroke-width="2.5" x1="460.8526788381205" y1="772.4712287284492" x2="559.9093155606097" y2="824.1641579898132" style="stroke-width: 2.5; stroke: rgb(0, 0, 0);"></line><line stroke-width="1.75" x1="419.23034115291375" y1="657.4661284291942" x2="559.9093155606097" y2="824.1641579898132" style="stroke-width: 1.75; stroke: rgb(0, 0, 0);"></line><line stroke-width="1" x1="542.7844029925327" y1="533.7403052505688" x2="520.8255940573436" y2="619.2452300905716" style="stroke-width: 1; stroke: rgb(0, 0, 0);"></line><line stroke-width="1.75" x1="559.9093155606097" y1="824.1641579898132" x2="542.7844029925327" y2="533.7403052505688" style="stroke-width: 1.75; stroke: rgb(0, 0, 0);"></line><line stroke-width="1" x1="444.61592930712504" y1="712.2031240639335" x2="559.9093155606097" y2="824.1641579898132" style="stroke-width: 1; stroke: rgb(0, 0, 0);"></line><line stroke-width="1" x1="559.9093155606097" y1="824.1641579898132" x2="537.1589142566008" y2="495.65402650044416" style="stroke-width: 1; stroke: rgb(0, 0, 0);"></line><line stroke-width="1" x1="559.9093155606097" y1="824.1641579898132" x2="626.1903805211768" y2="679.8930178738956" style="stroke-width: 1; stroke: rgb(0, 0, 0);"></line><line stroke-width="6.250000000000001" x1="251.85212798964494" y1="725.7677943166345" x2="559.9093155606097" y2="824.1641579898132" style="stroke-width: 6.25; stroke: rgb(0, 0, 0);"></line><line stroke-width="1" x1="559.9093155606097" y1="824.1641579898132" x2="511.7957165049156" y2="756.1256259979855" style="stroke-width: 1; stroke: rgb(0, 0, 0);"></line></g><g><circle transform="translate(3.269721822864085 47.213969178526895)" r="2" cx="533.8891924337368" cy="448.44005732191727"></circle><circle transform="translate(101.95601263664139 -8.827439555723686)" r="2" cx="325.3097693142554" cy="844.4759891487483"></circle><circle transform="translate(36.69496949912718 45.56862781563541)" r="2" cx="448.41893802099366" cy="685.7129318828229"></circle><circle transform="translate(3.2394770389801124 1.6423666705668438)" r="2" cx="408.27439574148593" cy="747.2875092573231"></circle><circle transform="translate(32.94921109684947 51.01489771468914)" r="2" cx="467.8620015339984" cy="657.4644428059983"></circle><circle transform="translate(2.6334051593585173 44.66029646375682)" r="2" cx="540.1509978331742" cy="489.08000878681196"></circle><circle transform="translate(-6.791114325344097 28.268239988858113)" r="2" cx="597.0628252541792" cy="669.5114341314766"></circle><circle transform="translate(440.73435001220787 155.4817560959491)" r="2" cx="-245.65924417321366" cy="539.9766098225082"></circle><circle transform="translate(30.701194149609364 43.41525517377886)" r="2" cx="481.09452235530625" cy="712.7103708242066"></circle><circle transform="translate(-6.647923167605768 -1.8871729983657133)" r="2" cx="375.93758412455645" cy="771.9393540521851"></circle><circle transform="translate(-78.26982063706964 -11.712835724145407)" r="2" cx="796.4847656665806" cy="859.5669398141908"></circle><circle transform="translate(17.75264512294234 39.10749397680047)" r="2" cx="467.26188255748275" cy="620.0701256328321"></circle><circle transform="translate(-23.911591975709598 52.047332648944575)" r="2" cx="650.1019724968864" cy="627.845685224951"></circle><circle transform="translate(9.601300961461675 23.197468757047318)" r="2" cx="459.3194944488423" cy="581.131547941739"></circle><circle transform="translate(15.390925782019622 64.51692605411517)" r="2" cx="501.6170202180292" cy="579.809805210476"></circle><circle transform="translate(93.7764952159996 46.74541921803029)" r="2" cx="215.8740234260622" cy="652.6705025745614"></circle><circle transform="translate(0 0)" r="2" cx="559.9093155606097" cy="824.1641579898132"></circle><circle transform="translate(210.00263133507542 195.92421938310144)" r="2" cx="100.91837831478188" cy="395.94361374218715"></circle><circle transform="translate(1.2694442814317881 9.723447478434537)" r="2" cx="538.9189598816956" cy="663.386230211996"></circle><circle transform="translate(100.78400067766052 43.29122611670755)" r="2" cx="242.99955638726533" cy="688.037273258873"></circle><circle transform="translate(134.0736557758646 84.20664220585604)" r="2" cx="174.34034718282055" cy="582.002728304331"></circle><circle transform="translate(5.429574949812377 40.237609999778215)" r="2" cx="521.9216743780125" cy="542.6445353964809"></circle><circle transform="translate(-26.285269343796244 61.87077689921716)" r="2" cx="669.7601861424919" cy="565.5950477757433"></circle><circle transform="translate(34.27607304295816 33.285383503040066)" r="2" cx="410.3398562641669" cy="678.9177405608934"></circle><circle transform="translate(2.1930858239284134 1.144466783007374)" r="2" cx="458.65959301419207" cy="771.3267619454418"></circle><circle transform="translate(44.793433698272565 53.07813172644819)" r="2" cx="374.4369074546412" cy="604.387996702746"></circle><circle transform="translate(94.77486487349961 30.271983408980304)" r="2" cx="157.07726311614533" cy="695.4958109076542"></circle><circle transform="translate(2.4877340950697544 13.043379290698795)" r="2" cx="518.3378599622738" cy="606.2018507998728"></circle><circle transform="translate(146.66582785209175 220.83035773588927)" r="2" cx="327.28033119123575" cy="473.9016422397981"></circle></g><g></g></g></svg>