<?xml version="1.0" encoding="utf-8"?>
<!-- Generator: Adobe Illustrator 16.0.0, SVG Export Plug-In . SVG Version: 6.00 Build 0)  -->
<!DOCTYPE svg PUBLIC "-//W3C//DTD SVG 1.1//EN" "http://www.w3.org/Graphics/SVG/1.1/DTD/svg11.dtd">
<svg version="1.1" id="Ebene_1" xmlns="http://www.w3.org/2000/svg" xmlns:xlink="http://www.w3.org/1999/xlink" x="0px" y="0px"
	 width="1000px" height="1000px" viewBox="0 0 1000 1000" enable-background="new 0 0 1000 1000" xml:space="preserve">
<path d="M775.36,894.231l-3.387-4.088l-5.279-9.072l-1.842-27.283l1.365-3.207l1.795-6.273l0.812-8.706l-0.929-1.845l-4.115-9.101
	l-1.744-7.931l-1.071,0.133l-5.786,0.719l-7.664,2.512l-4.193-7.242l-0.425-0.041l-0.967,0.522l-4.916,4.215l-4.917,4.216
	l-10.269,0.216l-3.505-4.175l-4.196,3.24l-6.213,0.593l-2.25,1.282l-5.606,3.135l-4.456,3.036l-1.006,0.743l-1.35,1.067
	l-1.338,1.113l-1.279,1.126l-2.421,2.136l-3.67,5.567l-15.478-2.315l0.312-0.071l-3.149-14.786l-2.199-1.854l-0.275-42.828
	l1.585-1.671l-6.799-4.822l-1.031-25.962l-0.907-0.772l-0.016-0.013l-2.839,3.469l-16.287,6.452l-9.685-5.17l-0.897-2.143
	l18.267-21.506l1.732-0.346l3.915,2.868l3.965,2.597l3.936,2.836l1.355-2.239l3.347-4.848l3.987-2.999l2.759-3.908l0.772-4.755
	l-0.667-0.437l-1.611-7.471l-3.099-1.774l-0.839-0.41l-4.163-2.036l-1.457,2.859l-6.945,5.008l-4.147-0.854l-4.363-0.913
	l-4.261-0.901l-3.853-0.138l-4.786,0.051l-4.582-1.387l-0.811-0.516l12.648-23.237l2.557,6.133l3.04,7.292l4.909-2.023l5.24-2.06
	l4.146-1.712l10.995-13.462l2.634-0.9l-0.614-0.652l-4.018-5.294l-0.459-11.241l-2.149-3.602l-3.772-6.322l-1.818-3.018
	l-3.791-6.292l-3.771-6.326l-3.76-6.343l-3.761-6.341l-0.077-0.127l-3.809-6.264l-0.572-0.276l-0.318-0.042l-2.002,2.178
	l-4.553,4.736l0.408,0.643l2.412,3.795l2.413,3.794l-3.585,34.336l-2.185,1.318l-2.102,1.688l0.959,1.491l3.839,6.798l2.046,4.606
	l-13.671,25.113l-0.45-0.286l-0.374,0.658l-0.327,1.744l-11.465,21.061l-9.215-11.755l-5.859-3.895l6.333-20.931l2.521,5.131
	l2.035-1.074l3.944-2.081l4.839-9.725l2.448-0.378l3.975-2.765l0.219-1.665l-0.354-6.987l1.754-6.242l-0.911-2.357l-0.757-9.29
	l-1.656-4l-1.83,0.772l-4.119-4.977l-4.191-5.748l-2.204-5.331l-3.914,1.611l-1.284,6.517l-0.457,0.196l-1.912,12.732l-14.652-17.5
	l2.721-21.444l3.455,1.925l0.354,0.197l10.643,0.646l5.377,4.334l3.458,3.943l4.772-3.743l1.559-1.633l0.241-0.406l2.366-5.784
	l1.176-3.232l-2.831-1.944l-4.155-2.854l-4.638-16.851l-0.631-3.345l-1.639,0.38l-5.233,1.215l-4.289,0.995l-7.115,1.282
	l-3.498-1.384l-6.861-0.217l2.997-38.042l6.393-10.188l2.721,0.703l2.721,0.704l0.484-0.885l2.754-5.021l2.756-5.019l1.284-2.375
	l-0.153-0.104l-0.782-10.73l2.374-3.7l-1.005-0.71l-3.762-2.73l-0.939-0.678l-3.765-2.718l-1.186-0.847l-0.561-0.322l-3.883-2.229
	l-3.882-2.229l-0.604,0.318l-0.492,3.284l-0.755,5.035l-7.656,8.636l-5.574,10.216l-3.608,1.281l-3.642,0.937l-3.653,1.196
	l0.267,0.931l0.148,0.306l2.231,1.576l3.629,5.067l0.053,2.565l-24.964,18.885l-0.749-9.138h0.019l4.63,0.653l0.364-0.681
	l3.35-5.624l1.903-4.534l3.03-6.081l-2.083-0.74l-4.678-1.663l-4.679-1.662l-2.174,4.505l-5.904,4.394l-4.416-0.607l-4.496-0.441
	l-4.651,0.224l-0.307,2.702l3.097-0.125l3.232,10.945l4.032-0.588l4.757-0.692l1.963,0.007l0.926,11.291l-10.648,8.056l-2.006,0.24
	l-2.537,0.723l-2.549,1.042l0.277,0.473l-0.207,2.833l-21.171,16.016l-0.646,0.196l-1.858,0.564l0.143,0.332l0.225,0.523
	l-11.693,8.846l-10.53-29.395l2.85-0.695l5.399-3.628l6.09-1.528l8.385-2.085l5.042,2.918l5.568,2.414l0.878-2.678l0.137-0.652
	l0.152-2.196l-0.055-0.281l-1.089-0.489l-5.785-2.624l-5.784-2.625l-4.559-9.924l-1.782,0.107l-1.789,0.984l-6.17,2.417
	l-6.477-1.121l-5.646,2.032l-6.047,2.011l-6.048,2.012l-6.946,1.929l-4.585,0.69l-6.817,1.732l0.459,2.283l-5.369,9.339l0.556,2.941
	l5.125,4.03l0.018-0.004l6.077-1.612l6.078-1.612l6.314-3.292l6.141,0.117l4.461,0.091l11.36,31.713l-7.849,5.938l-2.516,0.203
	l-6.615,0.204l-3.47,8.865l-1.158,1.136l-17.875,13.521l-2.722-7.711l-3.67,0.053l-5.665-6.461l-2.527-6.05l-0.295-0.072
	l-0.938,0.559l-0.897,0.604l-0.937,0.812l-0.612,0.69l-0.75,1.35l-0.842,5.188l-4.923,13.561l-1.021,0.666l-9.508,11.05l-1.111-0.04
	l-4.243,3.553l-1.222,1.023l-35.379-35.892l0.47-3.4l2.771-7.351l13.15-15.424l3.883-0.99l5.16-1.679l4.992-1.476l4.952-1.55
	l4.953-2.118l0.042-0.074l4.364-5.929l-0.51-2.354l-1.496-10.313l-0.537,0.066l-4.222-7.214l-0.89-0.767l-3.673-2.549l-4.992-2.626
	l-4.717,0.637l-5.446-10.662l-0.503,0.082l-5.732-1.214l-5.499-1.422l-3.533,3.247l-6.761-2.04l-4.201,0.813l-0.118,0.037
	l-5.558,1.749l-5.58,1.604l-5.6,1.323l-6.99,9.874l-7.534,6.395l-5.602,0.904l-5.611,0.902l-5.602,0.89l-5.571,0.904l-5.602,0.951
	l-5.602,0.95l-5.603,0.95l-5.596,0.914l-5.602,0.984l-5.611,0.981l-5.602,0.907l-5.603,0.908l-2.047,0.715l-1.87,0.891l-2.043,1.479
	l-1.514,2.063l-0.985,2.002l-0.577,1.882l-2.014,7.234l-0.112,0.999l0.54,2.64l1.739,7.609l0.452,1.81l0.857,1.845l0.965,1.252
	l1.076,1.142l1.185,0.844l1.368,0.733l0.496,0.153l5.539,0.567l5.504-0.057l5.404-0.28l5.175-0.688l9.721,7.317l1.745,0.959
	l4.606-3.82l8.138,9.606l4.221-0.861l4.886-0.729l7.651,5.652l4.013,3.9l5.565,1.65l5.566,1.649l5.274,4.316l0.459,0.024
	l5.083-0.798l5.606-0.95l5.755,1.429l2.381-2.539l5.638-0.992l-0.058-0.395l-0.014-7.524l0.535-3.87l33.143,33.621l-0.137,0.114
	l-3.121,2.599l-1.244,3.684l-7.5,15.995l-5.068-0.066l-3.3-1.277l-0.591,2.956l1.323,0.506l1.473,0.396l1.461,0.283l1.585,0.133
	l2.18-0.111l0.303-0.043l4.765-1.064l4.476-1.824l3.445-2.776l8.76,2.153l2.818,0.305l4.823,0.381l4.821,0.421l0.312-0.868
	l96.79,98.188l-2.763,4.694l-56.513-43.236l0.955-0.089l2.919-0.272l2.918-0.272l2.918-0.271l0.863-0.227l-0.259-0.827l-1.337-4.271
	l-1.336-4.271l-1.336-4.271l-0.666,0.068l-2.796,0.29l-2.797,0.289l-2.796,0.29l-5.725-4.876l-0.143-1.691l-1.498,0.161
	l-2.886,0.311l-2.886,0.311l-2.369,0.255l-3.395,0.251l-2.933-0.676l-4.067-1.006l-1.874-2.493l-0.484,0.106l-1.154,0.269
	l-2.896,0.646l-2.115,0.556l-0.21,0.073l0.384,2.625l0.607,4.698l0.076,0.416l0.611,4.188l-8.015-5.059l0.355-1.684l2.323-9.443
	l0.258-1.247l0.078-2.278l2.006-9.607l-0.426-0.096l-6.095-1.36l-6.823-2.677l-5.16-3.054l-5.914-3.024l-4.204,3.248l-4.1,2.963
	l-8.178,5.613l-54.629-34.48l1.127-1.812l3.762-0.412l3.762-0.412l3.763-0.412l3.762-0.412l-0.054-0.618l-0.43-0.652l-2.44-1.52
	l-4.053-2.987l-3.42-4.794l-3.229-4.418l-0.842-0.873l-1.109-0.965l-1.259-0.845l-1.829-0.992l-1.354,2.07l-2.023,3.805
	l-9.575,5.474l-3.825-1.91l-3.824-1.91l-3.824-1.91l-3.824-1.91l-1.105,2.259l-2.691,5.5l1.214,0.617l4.472,8.363l0.464,4.291
	l2.057-0.243l3.154-0.374l10.771,16.082l-0.126,1.299l-33.636-17.658l2.211-7.396l-1.322-6.146l-1.325-6.159l-1.325-6.159
	l-0.525-2.44l-0.64-1.668l-2.14,0.823l-9.199,15.388l-2.87-0.16l-4.944,2.363l-7.593-10.082l-3.913,0.224l-0.531,2.158l-1.491,6.056
	l-1.525,6.033l0.083,1.306l-0.649,6.519l0.191,0.4l0.849,0.016l3.349,0.061l3.296,7.985l2.292,0.08l0.438,0.018l-18.03,29.525
	l-2.18-0.048l-8.274-5.743l-8.092,0.451l-8.652-6.831l-1.205,0.116l-8.456,0.776l-3.187,0.408l-0.441,0.741l-5.926,9.941
	l1.345,1.036l4.084,15.776l-1.319,15.044l1.86,4.393l2.398,2.89l4.896-0.137l8.468-0.237l8.47-0.154l9.55-2.7l7.387,2.363
	l6.884-8.44l8.151,0.747l3.897-1.097l50.135,14.593l-41.17,35.363l-1.5-3.327l-1.293,2.039l-1.029,1.625l-11.992,10.124
	l-4.841-1.595l-5.375,0.939l-5.406-1.491l-5.142-1.302l-1.303,1.346l-5.733,2.166l-5.238,0.618l-5.815,1.382l-0.114,1.532
	l-5.561,12.891l-3.869-0.481l-0.067,1.003l-0.61,9.119l0.103,0.85l0.11,0.428l1.371,3.709l2.044,0.904l7.818,3.665l2.841,1.793
	l4.78,2.059l4.916,1.517l4.532,0.896l0.104-0.818l6.585-9.077l3.887,0.462l6.737-3.578l5.336-0.275l3.443-1.543l0.933-3.03
	l9.715-7.148l85.008,2.366l-0.03,0.18l-3.326,4.442l-3.262,4.386l-3.272,4.866l2.373,2.082l2.927-5.118l3.142-5.054l7.902-5.604
	l1.922,0.053l2.606,1.001l3.95,1.052l0.064-1.868l110.735,3.081l-3.347,7.892l-7.911,4.275l-7.949,9.093l-1.441,3.103
	l-47.482,10.757l3.19-21.542l3.881-5.543l-2.317-1.265l-4.521,6.805l-6.213,6.797l-5.264,6.208l-8.892-0.549l-3.812,3.309
	l-6.245,5.42l-1.706,2.716l0.138,2.981l-7.061,8.505l0.073,1.617l-4.688,20.584l-5.22,7.064l-5.308,6.987l0.253,1.772l0.353,1.095
	l4.889-6.273l5.343-6.932l5.288-6.877l4.721-6.817l6.104-8.773l9.777-6.3l8.838-1.566l7.353,1.127l5.691,2.237l0.153-1.577
	l-0.59-0.394l-3.262-7.186l44.482-10.077l-5.109,10.528l0.106,0.518l2.426,16.259l3.629,4.907l2.761,15.784l3.276-0.125
	l10.111,7.315l8.686,8.207l3.138,2.182l4.439,2.592l3.669,1.706l4.672,1.407l5.676,1.285l4.375,0.875l2.896,0.228l3.959,0.166
	l3.308-0.307l3.247-0.721l3.958-1.154l0.323-0.127l9.278-5.741l8.963-8.569l9.602-0.696l11.097-9.205l4.577-2.52l14.711-17.317
	l9.266-1.711l10.715-2.517l5.462-1.119l20.229,2.987l6.645,3.217l8.935-0.547l10.129-1.547l6.302-2.581l1.253-7.501l12.572-26.006
	l18.548,2.775l4.416,4.367l4.13,7.227l1.905,2.133l4.894,5.478l4.893,5.478l4.894,5.478l2.819-2.19l4.059-3.151l21.448,4.053
	l3.313,6.067l3.313,6.067l3.313,6.067l2.788-3.726l11.385,2.001l4.116,2.441l4.644,6.328l0.455-0.152l5.805-1.934L775.36,894.231z
	 M486.217,741.207l1.11,0.44l29.413,34.854l-0.442,0.752l-34.983-35.488l1.052-0.123L486.217,741.207z M276.089,814.766
	l-0.233-0.109l-2.419-9.34l-1.183-0.998l-2.8-8.658l-3.529,0.707l-6.576-3.423l-0.1-0.221l43.098-37.019l6.689,9.285l-0.021,0.212
	l5.105,10.979l-0.438,4.972l0.367-0.05l5.273-0.726l3.262-0.482l2.835-4.412l3.769-5.876l3.417-5.354l50.455,14.686l-28.561,24.638
	l-3.287-8.669l0.323-6.052l-2.916-1.829l-2.223-0.664l-1.023,3.916l-0.252,5.992l1.254,5.043l-2.541,15.337L276.089,814.766z
	 M270.887,814.622l-8.004-0.223l4.01-2.197L270.887,814.622z M497.506,600.134l0.735,1.714l1.512,0.679l1.587,0.712l1.575,0.7
	l2.239,7.829l-0.269,0.917l0.251,0.125l1.749,0.501l1.031,0.262l7.163,29.896l-1.89,2.612l1.323,0.31l2.394,29.267l-0.263,0.101
	l0.022,0.036l4.498,7.83l4.154,8.186l2.747,5.868l9.086,37.93l-0.341,6.786l-2.117,3.599l-7.075-19.751l0.692-0.189l3.177-0.319
	l1.246-2.607l-2.31-1.118l-3.008-1.454l-2.221-1.075l-14.775-41.244l1.186,0.803l1.695-1.71l-0.51-0.791l-4.396-6.691l-0.618-12.762
	l0.213-12.613l-1.017-1.603l-2.39-10.538l-2.334-2.945l-6.442-5.751l-2.192-10.962l-4.929-2.037l-1.92,1.571l-1.112-3.104
	L497.506,600.134z M588.425,669.865l1.644,7.62l1.033,0.136l4.918,4.26l2.807,4.94l0.662,1.348l-7.249,23.96l-2.471,4.668
	l-15.558,9.077l-0.301-0.14l10.495-82.718l13.575,16.215l-1.481,2.261l-5.813,5.88l-2.269-0.37l-0.501,2.781L588.425,669.865z
	 M362.186,729.28l-3.411,10.123l-3.598,7.2l1.477-1.474l11.706,5.477l2.819,1.407l1.514,0.477l6.065,2.036l5.062,1.652l4.187-2.21
	l5.894-3.111l0.069-1.66l6.823-6.02l7.691,4.037l-24.766,13.354l-40.981-13.963l-9.416-21.445l1.098-3.704l1.303-4.38l-0.752-0.395
	l-0.14,0.484l-6.929-0.469l-5.162-1.91l-4.76-4.845l-4.424,0.487l-5.28,0.582l-5.28,0.582l-5.279,0.582l-1.283,0.402l-24.138-31.195
	l3.86,0.159l0.384-0.548l-0.702-2.957l-0.109-0.514l85.21,44.731L362.186,729.28z M566.223,554.311l2.999,1.817l5.44,6.57
	l0.211,4.779l3.16-0.688l-0.14-0.601l0.612-1.997l-2.105,26.726l-0.527-0.017l-0.834-2.72l-2.32,0.738l-2.918,4.844l-4.504,7.619
	l-6.916,4.682l-0.753,0.294l-12.559-15l0.086-0.066l2.68-2.054l5.207,1.774l1.136,1.784l1.254-0.805l1.263-1.301l0.785-1.091
	l-0.835-1.206l-1.763-9.102l0.855-1.121l-1.522-1.058l-1.398-0.922l-2.449-1.615l-0.896-0.491l-0.714-0.282l-0.165,0.024
	L566.223,554.311z M456.211,779.013l1.742-2.758l-0.32-2.204l-1.614-0.518l-0.203-1.473l3.236,1.699l-0.474,0.908l38.468,20.075
	l-0.868,0.455l-8.031-0.153l-3.424-0.063l-27.228-9.276L456.211,779.013z M555.245,723.918l-2.13-0.972l-2.333-28.458l1.425-4.975
	l5.915-6.012l1.992-4.548l3.866-8.589l3.83-8.656l3.521-6.433l-5.427,68.907L555.245,723.918z M455.062,766.584l-0.039-0.285
	l5.571,3.188L455.062,766.584z M444.567,760.315l-0.628-0.075l-0.357,0.316l-21.522-11.298l1.271-1.097L444.567,760.315z
	 M439.98,763.749l-0.611,0.541l-4.399,0.566l-4.652,0.753l-4.729,0.371l-5.248-1.634l-4.556-1.062l-4.573-1.066l-3.286-0.767
	l10.471-9.032L439.98,763.749z M405.187,767.884l-3.382-1.152l4.459-3.847L405.187,767.884z M571.488,653.294l-5.665-3.04
	l-5.944-3.303l-8.322-12.507l-0.86-6.41l-2.1,1.235l-3.463-3.698l-2.641-32.204l0.209-0.162l11.976,14.304l-4.493,1.754l2.597,5.61
	l1.114,2.137l3.478,6.674l0.006,0.011l1.764,0.717l3.708-0.322l1.479-0.128l2.875-1.489l6.134,7.326L571.488,653.294z
	 M520.51,770.094l-25.003-32.744l-0.235-2.456l-0.558-5.811l26.521,39.778L520.51,770.094z M573.675,625.525l-3.741-4.469
	l2.566-1.329l0.511-0.248l1.159-0.241L573.675,625.525z M426.343,745.564l1.739-1.501l42.389,26.755L426.343,745.564z
	 M362.231,760.379l-19.907-5.794l0.873-0.69L362.231,760.379z M517.058,712.329l-4.265-10.533l0.469-0.063L517.058,712.329z
	 M495.24,741.945l16.851,22.068l-18.411-21.816L495.24,741.945z M423.581,743.983l-1.351-0.772l1.747-0.942l1.037,0.479
	L423.581,743.983z M420.57,746.581l-1.366,1.179l-2.741-1.439l1.88-1.014L420.57,746.581z M415.541,750.919l-17.029,14.69
	l-10.921-3.721l24.096-12.992L415.541,750.919z M358.052,808.76l-1.83-0.638l-0.592-1.561l30.863-26.623l15.234,4.434l-1.147,5.26
	l-0.466,2.505l-1.567,7.234l1.51-0.218l4.605-0.664l4.746-0.342l4.962-0.277l4.595,1.104l4.611,1.106l1.398,0.336l8.67-4.716
	l5.459,5.417l3.12,0.567l4.633,0.819l4.552,2.36l0.577,0.014l4.675,0.114l0.34-0.716l1.593-3.353l17.711,5.155l-4.374,10.312
	L358.052,808.76z M570.822,724.306l-1.164-0.029l7.118-90.374l5.004,5.977l-10.726,84.534L570.822,724.306z M540.964,702.235
	l2.5,19.148l-0.94,0.721l-2.988,6.763l-0.603,1.298l-6.509-27.169l2.811,1.598L540.964,702.235z M510.784,694.817l-1.127-0.767
	l-8.119-20.053l0.07,0.077l1.89,0.404L510.784,694.817z M508.186,702.405l4.414,10.903l-0.205-0.101l-1.278,2.908l-1.836,4.174
	l-1.836,4.174l-1.836,4.175l-1.891,4.108l-0.1,1.103l0.004,1.211l0.164,1.309l0.126,0.421l1.674-0.199l3.126-0.372l1.887-0.575
	l3.082-0.939l1.071-3.011l2-0.916l11.574,26.035l-5.4,9.178l-29.029-43.539l-0.194-1.917l-0.664-6.269l-0.611-6.286l-0.052,0.006
	l-3.527,0.377l-0.973-1.267l1.642-5.932l2.72-0.205l6.348,2.526l3.906-0.439L508.186,702.405z M485.586,704.115l-0.473-0.615
	l-2.997,0.332l-0.595,0.059l-4.378-6.567l2.349-0.214l7.058,3.523L485.586,704.115z M458.99,677.464l1.363,0.084l7.707,11.559
	l-5.548,0.63l0.471,5.004l0.402,3.938l3.728-0.384l6.632-0.66l4.375,6.562l-3.76-0.4l-1.42,0.077l-3.872,0.211l-0.579,0.071
	l-3.216,1.057l1.591,5.211l-21.486-25.461l0.655-0.332l3.343-1.643l3.312-1.7l3.166-1.83L458.99,677.464z M269.671,731.581
	l23.074,5.529l-0.09,0.997l-0.183,1.967l-28.17-8.199L269.671,731.581z M565.179,550.991l-19.688,21.794l-0.487-0.262l-0.502-0.067
	l-2.612-0.35l-1.164-0.311l-0.337-4.102l24.75-18.723L565.179,550.991z M537.627,570.718l-0.771-0.352l0.699-0.528L537.627,570.718z
	 M518.051,586.219l2.163,2.485l2.205,2.399l1.975,2.899l0.932,1.06l1.804,2.05l2.17,2.467l2.17,2.467l2.011-1.605l2.321-1.854
	l0.426-0.333l1.814,19.127l-1.725-2.177l-0.743,0.489l-10.657,29.151l-5.163-0.911l-1.597-0.498l-7.183-29.979l0.613-0.289
	l1.816-0.856l0.113-0.377l0.575-4.172l1.281-1.696l2.594-0.512l0.604-1.088l-0.643-0.297l-1.815-0.836l-1.824-0.82l-1.808-0.895
	l-1.807-0.894l-1.808-0.895l-1.805-0.939l-1.712-0.872l-2.476-1.331l-0.207-0.46l16.636-12.584l-0.09,1.228l-1.396,1.074
	L518.051,586.219z M482.361,615.472l-4.708-0.32l3.614-2.734L482.361,615.472z M455.157,643.083l3.413-0.332l7.53,3.171l7.494,4.025
	l3.164-0.329l2.296-0.238l12.174,11.145l9.88,24.404l-0.779,0.369l-6.184,2.049l-6.481,0.098l-9.038,0.688l-3.525,0.305
	l-3.656,0.339l-7.333-10.998l0.858,0.053l2.112,2.403l2.664-0.941l3.445-1.217l2.06-0.926l-0.516-0.558l-0.86-11.392l1.619-1.571
	l-2.764-2.571l-2.094,2.104l-2.723,2.558l-4.374-1.211l-5.394-0.269l-2.315-2.632l-1.074,0.925l-3.147,2.609l-1.321,1.128
	l-1.9,1.622l-3.128,2.67l0.222,0.264l-1.953,10.7l-0.609,0.521l-11.119-13.175l4.768-5.407l3.929-0.014l4.16-3.537l4.391-2.768
	l5.193-1.424l-0.97-1.337l-3.352-5.769l-2.815-4.081l-1.966-1.778l-2.159-1.378l11.136-8.424l-0.072,1.808L455.157,643.083z
	 M509.622,788.597l-0.576-0.152l-0.443,0.232l-76.365-48.199l1.905-1.643l6.771-0.363l1.729,2.29l1.729,2.29l2.886-0.27l2.918-0.271
	l0.48-0.045l59.38,45.43L509.622,788.597z M250.908,681.235l1.221,0.027l3.974,0.089v-0.008l7.58-0.278l0.555,0.02l3.973,0.143
	l0.178,0.007l25.138,32.488l-1.413,1.374l-0.583,0.636l1.522,2.607l0.371,11.279l-0.405,4.473l-14.79-3.545l0.394-4.104l0.284-3.3
	l-2.044-4.196l-7.949-0.549l-8.406-0.814l-8.377-0.845l-9.922-5.961l-6.676-0.018l-2.721-0.06l17.995-29.469L250.908,681.235z
	 M359.78,812.635l110.603,7.41l-0.053,0.127l-111.693-3.108L359.78,812.635z M420.971,739.575l0.465,0.656l-2.271,1.225
	l-9.654-5.525l0.668-3.167L420.971,739.575z M408.764,739.825l6.512,3.727l-2.016,1.088l-4.917-2.582L408.764,739.825z
	 M624.94,712.461l3.814,3.471l3.746,3.607l3.757,3.587l3.674,3.805l-14.755,17.371l-5.722-13.655l-6.526,1.57l-0.742-0.947
	l11.017-20.237L624.94,712.461z M584.676,617.048l-2.382,18.772l-5.183-6.19l0.882-11.188L584.676,617.048z M420.011,675.525
	l7.578-4.665l43.046,51.007l1.113,3.409l1.814,5.632l1.342,4.354l-55.959-56.769L420.011,675.525z M311.806,688.564l0.417-4.574
	l5.831-9.373l51.824,32.71l-0.01,0.005l-5.747,1.302l-4.626,6.262l0.419,1.739l-48.353-25.383L311.806,688.564z"/>
</svg>
